<?xml version="1.0" encoding="UTF-8"?>
<!DOCTYPE svg PUBLIC "-//W3C//DTD SVG 1.1//EN" "http://www.w3.org/Graphics/SVG/1.1/DTD/svg11.dtd">
<!-- Creator: CorelDRAW 2017 -->
<svg xmlns="http://www.w3.org/2000/svg" xml:space="preserve" width="3.70333in" height="2.08333in" version="1.1" style="shape-rendering:geometricPrecision; text-rendering:geometricPrecision; image-rendering:optimizeQuality; fill-rule:evenodd; clip-rule:evenodd"
viewBox="0 0 3703 2083"
 xmlns:xlink="http://www.w3.org/1999/xlink"
 data-name="filled outline"
 enable-background="new 0 0 512 512">
 <defs>
  <style type="text/css">
   <![CDATA[
    .fil0 {fill:#E6E7E8}
    .fil7 {fill:#FDC920;fill-rule:nonzero}
    .fil5 {fill:#FCD96D;fill-rule:nonzero}
    .fil6 {fill:#D5A579;fill-rule:nonzero}
    .fil3 {fill:#A0A5B0;fill-rule:nonzero}
    .fil4 {fill:#84CFEE;fill-rule:nonzero}
    .fil8 {fill:#252422;fill-rule:nonzero}
    .fil2 {fill:#373435;fill-opacity:0.031373}
    .fil1 {fill:#2B2A29;fill-opacity:0.078431}
   ]]>
  </style>
 </defs>
 <g id="Layer_x0020_1">
  <metadata id="CorelCorpID_0Corel-Layer"/>
  <polygon class="fil0" points="0,0 3703,0 3703,2083 0,2083 "/>
  <polygon class="fil1" points="0,1667 0,1665 0,1662 0,1660 0,1648 0,1641 0,1639 0,1627 0,1620 0,1616 0,1614 0,1605 0,1598 0,1594 0,1583 0,1583 0,1577 0,1568 0,1564 0,1544 0,1543 0,1522 0,1521 0,1515 0,1484 0,1475 0,1414 0,1403 0,1393 0,1378 0,1355 0,1332 1768,388 1749,398 1734,411 1721,427 1713,442 1776,408 1761,416 1749,426 1738,439 1730,453 1729,457 1784,428 1773,434 1764,441 1756,451 1750,462 1746,474 1745,487 1745,551 1839,551 2001,465 2044,465 2044,488 2086,465 2214,465 2214,508 2133,551 2470,551 2429,572 2491,572 2062,794 2066,797 2073,802 2322,673 2330,678 2411,636 2470,636 2427,658 2419,692 2444,679 2470,679 2470,765 2349,827 2349,828 2338,841 2336,844 2410,806 2425,799 2440,793 2457,789 2474,786 2491,786 2491,871 2423,906 2420,909 2413,923 2412,925 2461,900 2453,905 2446,912 2439,919 2434,927 2430,936 2428,946 2427,956 2428,966 2430,976 2434,985 2439,993 2446,1001 2453,1007 2461,1012 2470,1016 2446,1028 2458,1035 2474,1040 2491,1042 2491,1127 2456,1145 2457,1145 2470,1147 2470,1234 2427,1255 2427,1255 2491,1255 2171,1414 2171,1436 2309,1367 2313,1365 2317,1364 2321,1363 2325,1362 2329,1362 2342,1362 2351,1363 2359,1365 2366,1369 2372,1374 2377,1381 2381,1388 2384,1396 2385,1405 2385,1447 2384,1456 2381,1464 2377,1471 2372,1477 2366,1483 2359,1487 2265,1533 2361,1533 2491,1469 2489,1486 2484,1502 2477,1516 2466,1529 2454,1539 2439,1547 2208,1661 2251,1661 2470,1553 2463,1558 2456,1563 2448,1566 2255,1661 2406,1661 2419,1659 2431,1656 2377,1682 2406,1682 2423,1680 2439,1675 2381,1703 2406,1703 2427,1701 2447,1695 1648,2083 1625,2083 1601,2083 1582,2083 1553,2083 1539,2083 1392,2083 1388,2083 1346,2083 1327,2083 1299,2083 1285,2083 1241,2083 1149,2083 1102,2083 1097,2083 1076,2083 1056,2083 1041,2083 1014,2083 999,2083 993,2083 973,2083 961,2083 957,2083 943,2083 932,2083 920,2083 915,2083 897,2083 892,2083 890,2083 878,2083 871,2083 869,2083 851,2083 828,2083 809,2083 789,2083 770,2083 768,2083 767,2083 767,2083 749,2083 749,2083 728,2083 727,2083 727,2083 708,2083 707,2083 706,2083 703,2083 686,2083 686,2083 686,2083 682,2083 662,2083 660,2083 654,2083 650,2083 645,2083 638,2083 636,2083 628,2083 625,2083 625,2083 616,2083 603,2083 596,2083 590,2083 585,2083 581,2083 544,2083 542,2083 535,2083 534,2083 522,2083 522,2083 521,2083 520,2083 506,2083 501,2083 494,2083 482,2083 477,2083 463,2083 462,2083 453,2083 441,2083 441,2083 437,2083 432,2083 425,2083 399,2083 358,2083 343,2083 334,2083 270,2083 206,2083 198,2083 187,2083 182,2083 167,2083 165,2083 159,2083 135,2083 120,2083 120,2083 109,2083 105,2083 101,2083 91,2083 87,2083 81,2083 79,2083 76,2083 59,2083 54,2083 47,2083 42,2083 39,2083 0,2083 0,2071 0,2063 0,2060 0,2055 0,2055 0,2042 0,2040 0,2031 0,2030 0,2018 0,2017 0,2009 0,2006 0,2005 0,2003 0,2001 0,1993 0,1991 0,1979 0,1977 0,1973 0,1973 0,1961 0,1956 0,1955 0,1954 0,1952 0,1950 0,1942 0,1940 0,1938 0,1934 0,1932 0,1931 0,1929 0,1927 0,1927 0,1915 0,1914 0,1911 0,1910 0,1904 0,1901 0,1894 0,1882 0,1882 0,1874 0,1862 0,1831 0,1823 0,1816 0,1805 0,1800 0,1794 0,1783 0,1783 0,1777 0,1770 0,1760 0,1758 0,1739 0,1737 0,1723 0,1719 0,1698 0,1683 0,1681 "/>
  <g id="_2884089957728">
   <g>
    <polygon class="fil0" points="2011,572 2214,465 2214,508 2092,572 "/>
    <polygon class="fil0" points="1884,572 2086,465 2214,465 2011,572 "/>
    <polygon class="fil0" points="1841,572 2044,465 2044,508 1922,572 "/>
    <polygon class="fil0" points="1799,572 2001,465 2044,465 1841,572 "/>
    <polygon class="fil0" points="1724,562 1745,551 2470,551 2429,572 1724,572 "/>
    <polygon class="fil0" points="1724,498 1745,487 1745,551 1724,562 "/>
    <path class="fil0" d="M1729 457l55 -29 -11 6 -9 8 -8 9 -6 11 -4 12 -1 13 -21 11 0 -11c0,-10 2,-20 5,-30z"/>
    <path class="fil0" d="M1763 415l13 -7 -14 8 1 -1zm-1 1l-13 10c4,-4 8,-7 13,-10zm-13 10l-10 13c3,-5 7,-9 10,-13zm-10 13l-8 15c2,-5 5,-10 8,-15zm-8 15l-5 16c1,-6 3,-11 5,-16zm-5 16l-2 17c0,-6 1,-12 2,-17z"/>
   </g>
   <g>
    <path class="fil0" d="M1724 1521l13 -7c15,24 42,39 72,39l19 0 -104 52c0,-3 0,-6 0,-9l0 -75z"/>
    <path class="fil0" d="M1733 1507l-9 5 0 -43c0,14 3,27 9,39z"/>
    <path class="fil0" d="M1748 1657l207 -103 127 0 -259 128 -15 0c-24,0 -45,-10 -61,-25z"/>
    <polygon class="fil0" points="1824,1682 2083,1554 2169,1554 1909,1682 "/>
    <path class="fil0" d="M1745 1653l198 -99 12 0 -207 103c-1,-1 -3,-3 -4,-4z"/>
    <path class="fil0" d="M1742 1649l191 -95 10 0 -198 99c-1,-1 -2,-2 -3,-3z"/>
    <polygon class="fil0" points="1909,1682 2169,1554 2222,1554 1962,1682 "/>
    <path class="fil0" d="M1765 1670l233 -116 64 0 -258 128c-14,-1 -27,-5 -39,-12z"/>
    <path class="fil0" d="M1780 1677l248 -123 12 0 -253 125c-3,-1 -5,-1 -8,-2z"/>
    <path class="fil0" d="M1724 1606l104 -52 63 0 -159 79c-4,-8 -7,-18 -8,-27z"/>
    <path class="fil0" d="M1724 1546l28 -14c15,14 35,22 58,22l19 0 -104 52c0,-3 0,-6 0,-9l0 -51z"/>
    <polygon class="fil0" points="1758,1665 1981,1554 1985,1554 1760,1666 "/>
    <path class="fil0" d="M1724 1479l-1 0 0 -10c0,3 0,7 1,10z"/>
    <path class="fil0" d="M1737 1515l-13 7 0 -53c0,17 5,33 13,46z"/>
    <path class="fil0" d="M1724 1510l9 -4c5,10 11,19 19,26l-28 14 0 -35z"/>
    <path class="fil0" d="M1724 1534l21 -10c1,1 2,2 3,3l-24 12 0 -5z"/>
    <polygon class="fil0" points="1724,1486 1725,1485 1726,1489 1724,1490 "/>
    <path class="fil0" d="M1729 1625l143 -71 85 0 -208 103c-9,-9 -16,-20 -20,-32z"/>
    <path class="fil0" d="M1724 1533l20 -10c9,11 21,20 34,25l-54 27 0 -42z"/>
    <path class="fil0" d="M1734 1509l-10 5 0 -46c0,15 4,29 10,41z"/>
    <path class="fil0" d="M1724 1564l43 -22c12,7 27,11 42,11l62 0 -143 71c-3,-9 -5,-19 -5,-29l0 -32z"/>
    <path class="fil0" d="M2057 1682l260 -128 88 0c12,0 23,-2 33,-7l-275 135 -107 0z"/>
    <polygon class="fil0" points="2207,1682 2470,1553 2463,1558 2456,1563 2448,1566 2212,1682 "/>
    <path class="fil0" d="M1726 1616l124 -62 85 0 -193 96c-8,-10 -14,-21 -16,-34z"/>
    <path class="fil0" d="M1724 1543l26 -13c5,5 11,9 17,13l-43 22 0 -21z"/>
    <path class="fil0" d="M1724 1586l67 -33c6,1 12,2 18,2l41 0 -124 62c-1,-6 -2,-13 -2,-19l0 -11z"/>
    <polygon class="fil0" points="2362,1682 2406,1661 2419,1659 2431,1656 2377,1682 "/>
    <path class="fil0" d="M1726 1489l-3 1 0 -22c0,7 1,14 3,21z"/>
    <path class="fil0" d="M1724 1538l23 -12c1,1 2,2 3,3l-26 13 0 -5z"/>
    <polygon class="fil0" points="1724,1562 1765,1542 1767,1543 1724,1564 "/>
    <path class="fil0" d="M1724 1564l43 -22c7,4 15,7 24,9l-67 33 0 -21z"/>
    <path class="fil0" d="M1743 1523l-20 10 0 -64c0,21 7,40 20,54z"/>
    <polygon class="fil0" points="1724,1471 1724,1471 1724,1469 "/>
    <path class="fil0" d="M1724 1471l0 0c1,25 12,47 29,62l-29 15 0 -77z"/>
    <path class="fil0" d="M1724 1478l1 0c2,17 9,32 19,45l-19 10 0 -54z"/>
    <path class="fil0" d="M1724 1518l12 -6c2,3 3,5 5,8l-17 9 0 -11z"/>
    <path class="fil0" d="M1724 1480l1 0c0,2 1,4 1,6l-2 1 0 -6z"/>
    <polygon class="fil0" points="1888,1682 2147,1554 2174,1554 1915,1682 "/>
    <path class="fil0" d="M1760 1666l226 -112 12 0 -233 116c-2,-1 -4,-2 -5,-4z"/>
    <path class="fil0" d="M1724 1548l29 -15c7,6 14,11 23,14l-52 26 0 -26z"/>
    <path class="fil0" d="M1749 1657l208 -103 53 0 -239 119c-8,-4 -15,-9 -21,-16z"/>
    <path class="fil0" d="M1804 1682l258 -128 86 0 -259 128 -79 0c-2,0 -4,0 -5,0z"/>
    <path class="fil0" d="M1788 1679l253 -125 86 0 -259 128 -58 0c-7,0 -15,-1 -21,-3z"/>
    <path class="fil0" d="M1724 1478l-1 0 0 -10c0,3 0,6 1,9z"/>
    <path class="fil0" d="M1724 1479l-1 0 0 -11c0,4 0,7 1,10z"/>
    <path class="fil0" d="M1724 1606l105 -52 85 0 -177 88c-7,-11 -11,-23 -13,-36z"/>
    <path class="fil0" d="M1742 1650l193 -96 26 0 -211 105c-3,-3 -6,-6 -8,-9z"/>
    <polygon class="fil0" points="1724,1573 1776,1547 1779,1548 1724,1576 "/>
    <path class="fil0" d="M1724 1586l67 -34c6,1 12,2 18,2l20 0 -105 52c0,-3 -1,-6 -1,-10l0 -11z"/>
    <path class="fil0" d="M1724 1533l19 -10c4,4 8,8 12,12l-32 16 0 -18z"/>
    <path class="fil0" d="M1724 1575l54 -27c10,4 20,6 31,6l553 0 -261 128 -293 0c-47,0 -85,-38 -85,-85l0 -21z"/>
    <polygon class="fil0" points="2102,1682 2362,1554 2377,1554 2116,1682 "/>
    <polygon class="fil0" points="1724,1551 1755,1535 1756,1536 1724,1552 "/>
    <path class="fil0" d="M2145 1682l261 -128c6,0 12,-1 17,-2 6,-1 11,-3 16,-5l-275 135 -19 0z"/>
    <path class="fil0" d="M1724 1486l2 -1c2,10 5,19 10,27l-12 6 0 -32z"/>
    <path class="fil0" d="M1724 1597l85 -43 597 0 -261 128 -336 0c-47,0 -85,-38 -85,-85l0 0z"/>
    <path class="fil0" d="M1724 1479l1 0c4,32 25,58 54,69l-54 27 0 -96z"/>
    <path class="fil0" d="M1809 1554l-85 43 0 -128c0,6 1,12 2,17 1,6 3,11 5,16 2,5 5,10 8,15 3,5 7,9 10,13 4,4 8,7 13,10 5,3 9,6 14,8 5,2 10,4 16,5 6,1 11,2 17,2z"/>
    <path class="fil0" d="M1724 1564l21 -11 0 43 -21 10c0,-3 -1,-7 -1,-10l0 -33z"/>
    <path class="fil0" d="M1724 1607l21 -10 1 13 4 12 6 11 8 9 9 8 11 6 12 4 13 1 -31 15c-29,-11 -50,-38 -53,-69z"/>
    <path class="fil0" d="M1778 1676l31 -15 597 0 -44 21 -553 0c-11,0 -22,-2 -31,-6z"/>
    <path class="fil0" d="M2406 1682l17 -2c-6,1 -11,2 -17,2zm17 -2l16 -5c-5,2 -10,4 -16,5z"/>
    <path class="fil0" d="M1724 1597l2 17c-1,-6 -2,-11 -2,-17zm2 17l5 16c-2,-5 -4,-10 -5,-16zm5 16l8 15c-3,-5 -6,-9 -8,-15zm8 15l10 13c-4,-4 -7,-8 -10,-13zm10 13l13 10c-5,-3 -9,-7 -13,-10zm13 10l14 8c-5,-2 -10,-5 -14,-8zm14 8l16 5c-6,-1 -11,-3 -16,-5zm16 5l17 2c-6,0 -12,-1 -17,-2z"/>
   </g>
   <g>
    <polygon class="fil0" points="1724,723 2011,572 2092,572 1724,765 "/>
    <polygon class="fil0" points="1724,656 1884,572 2011,572 1724,723 "/>
    <polygon class="fil0" points="1724,634 1841,572 1922,572 1724,676 "/>
    <polygon class="fil0" points="1724,612 1799,572 1841,572 1724,634 "/>
    <polygon class="fil0" points="2429,572 1724,938 1724,572 "/>
    <polygon class="fil0" points="1724,572 2491,572 1724,969 "/>
    <path class="fil0" d="M1737 1515l733 -367 0 87 -642 320 -19 0c-30,0 -57,-16 -72,-39z"/>
    <path class="fil0" d="M1724 1429l767 -387 0 85 -758 380c-6,-12 -9,-25 -9,-39l0 -40z"/>
    <polygon class="fil0" points="1724,1275 2461,900 2453,905 2446,912 2439,919 2434,927 2430,936 2428,946 2427,956 1724,1313 "/>
    <polygon class="fil0" points="1724,1313 2427,956 2428,966 2430,976 2434,985 2439,993 2446,1001 2453,1007 2461,1012 2470,1016 1724,1393 "/>
    <polygon class="fil0" points="1724,1178 2491,786 2491,871 1724,1262 "/>
    <polygon class="fil0" points="1724,1190 2470,809 2470,852 1724,1232 "/>
    <polygon class="fil0" points="1724,759 1958,636 2001,636 1724,781 "/>
    <polygon class="fil0" points="1724,737 1916,636 1916,679 1724,779 "/>
    <polygon class="fil0" points="1724,714 1873,636 1916,636 1724,737 "/>
    <polygon class="fil0" points="1955,1554 2342,1362 2351,1363 2359,1365 2366,1369 2372,1374 2377,1381 2381,1388 2384,1396 2385,1405 2083,1554 "/>
    <polygon class="fil0" points="2083,1554 2385,1405 2385,1447 2169,1554 "/>
    <polygon class="fil0" points="1943,1554 2329,1362 2342,1362 1955,1554 "/>
    <polygon class="fil0" points="1933,1554 2309,1367 2313,1365 2317,1364 2321,1363 2325,1362 2329,1362 1943,1554 "/>
    <polygon class="fil0" points="2169,1554 2385,1447 2384,1456 2381,1464 2377,1471 2372,1477 2366,1483 2359,1487 2222,1554 "/>
    <polygon class="fil0" points="1998,1554 2342,1383 2346,1384 2350,1385 2354,1387 2357,1389 2360,1393 2362,1396 2363,1400 2363,1405 2062,1554 "/>
    <polygon class="fil0" points="2028,1554 2329,1405 2342,1405 2041,1554 "/>
    <line class="fil0" x1="2491" y1="1127" x2="2491" y2= "1127" />
    <polygon class="fil0" points="1828,1554 2427,1255 2491,1255 1891,1554 "/>
    <path class="fil0" d="M1752 1532l662 -331 14 55 -599 299 -19 0c-22,0 -42,-8 -58,-22z"/>
    <polygon class="fil0" points="1724,1252 2458,878 2444,885 2431,896 2420,909 2413,923 2408,939 2406,956 1724,1303 "/>
    <polygon class="fil0" points="1981,1554 2319,1386 2321,1385 2323,1384 2325,1384 2327,1383 2329,1383 1985,1554 "/>
    <path class="fil0" d="M1724 1437l746 -376 0 43 -746 375c0,-3 -1,-7 -1,-10l0 -32z"/>
    <polygon class="fil0" points="1724,1303 2406,956 2408,973 2413,990 2420,1004 2431,1017 2444,1027 2458,1035 2474,1040 2491,1042 1724,1429 "/>
    <polygon class="fil0" points="1724,1228 2436,865 2422,876 2409,888 2399,903 2391,920 2386,937 2385,956 1724,1292 "/>
    <polygon class="fil0" points="1724,1292 2385,956 2386,975 2391,993 2399,1009 2409,1024 2422,1037 2436,1048 2452,1056 2470,1061 1724,1437 "/>
    <polygon class="fil0" points="1724,1415 2400,1074 2373,1108 1724,1435 "/>
    <path class="fil0" d="M1724 1435l650 -327 11 8 11 7 12 6 12 5 12 5 13 4 13 3 13 2 -733 367c-8,-13 -13,-29 -13,-46l0 -34z"/>
    <polygon class="fil0" points="1724,1249 2299,956 2300,972 2302,988 2305,1004 2310,1019 2315,1033 2322,1047 2331,1061 2340,1074 1724,1386 "/>
    <path class="fil0" d="M1732 1506l642 -322 5 2 5 2 5 2 5 2 5 2 5 2 5 2 5 2 -662 331c-8,-7 -14,-16 -19,-26z"/>
    <path class="fil0" d="M1744 1524l631 -316 -53 32 -575 288c-1,-1 -2,-2 -3,-3z"/>
    <polygon class="fil0" points="1725,1485 2373,1160 2329,1186 1726,1489 "/>
    <polygon class="fil0" points="1724,1259 2193,1020 2248,1034 1724,1300 "/>
    <polygon class="fil0" points="1724,692 1830,636 1830,679 1724,735 "/>
    <polygon class="fil0" points="1724,781 2001,636 2001,679 1724,823 "/>
    <polygon class="fil0" points="1724,670 1788,636 1830,636 1724,692 "/>
    <polygon class="fil0" points="1724,605 1745,593 1745,850 1724,861 "/>
    <polygon class="fil0" points="1872,1554 2171,1405 2171,1447 1957,1554 "/>
    <path class="fil0" d="M1743 1523l492 -247 0 43 -458 229c-13,-5 -25,-14 -34,-25z"/>
    <polygon class="fil0" points="1724,1063 2470,679 2470,765 1724,1148 "/>
    <path class="fil0" d="M1724 1448l556 -280 45 45 -591 297c-7,-12 -10,-26 -10,-41l0 -21z"/>
    <polygon class="fil0" points="1724,1157 2410,806 2425,799 2440,793 2457,789 2474,786 2491,786 1724,1178 "/>
    <polygon class="fil0" points="1724,1181 2419,825 2431,820 2444,815 2457,811 2470,809 1724,1190 "/>
    <polygon class="fil0" points="1724,1157 2410,806 2425,799 2440,793 2457,789 2474,786 2491,786 1724,1178 "/>
    <polygon class="fil0" points="1724,991 2411,636 2470,636 1724,1021 "/>
    <polygon class="fil0" points="1724,1050 2444,679 2470,679 1724,1063 "/>
    <polygon class="fil0" points="1724,1021 2427,657 2413,712 1724,1067 "/>
    <polygon class="fil0" points="1724,1087 2384,748 2388,745 2393,743 2397,741 2402,739 2406,737 2411,736 2415,734 2420,733 1724,1090 "/>
    <polygon class="fil0" points="1724,862 1871,785 1880,781 1889,777 1899,774 1908,771 1918,768 1928,767 1938,765 1948,764 1958,764 1724,886 "/>
    <polygon class="fil0" points="1724,873 1768,850 1775,849 1781,848 1788,846 1794,844 1800,841 1724,881 "/>
    <polygon class="fil0" points="1724,861 1745,850 1768,850 1724,873 "/>
    <polygon class="fil0" points="1724,982 2322,673 2375,704 1724,1040 "/>
    <polygon class="fil0" points="1724,1090 2420,733 2431,729 1724,1093 "/>
    <polygon class="fil0" points="1724,1040 2375,704 2378,703 2380,702 2383,701 2385,700 2388,699 2390,698 2393,697 2395,696 1724,1042 "/>
    <polygon class="fil0" points="1724,1134 2403,786 2388,795 2374,804 2361,816 2349,828 2338,841 2328,855 2320,870 2313,886 2307,903 2303,920 2300,938 2299,956 1724,1249 "/>
    <polygon class="fil0" points="1724,1038 2329,727 2373,753 1724,1087 "/>
    <path class="fil0" d="M1767 1543l362 -181 9 1 8 2 7 4 6 5 5 6 4 7 2 8 1 9 -300 149 -62 0c-15,0 -30,-4 -42,-11z"/>
    <path class="fil0" d="M2318 1554l174 -85 -2 17 -5 16 -8 15 -10 13 -13 10 -14 8c-10,4 -21,7 -33,7l-88 0z"/>
    <line class="fil0" x1="2406" y1="1533" x2="2406" y2= "1533" />
    <polygon class="fil0" points="1850,1554 2150,1405 2150,1447 1935,1554 "/>
    <path class="fil0" d="M1750 1530l336 -168 43 0 -362 181c-6,-4 -12,-8 -17,-13z"/>
    <path class="fil0" d="M1791 1552l338 -169 4 0 4 1 4 2 3 3 3 3 2 4 1 4 0 4 -300 149 -41 0c-6,0 -12,-1 -18,-2z"/>
    <polygon class="fil0" points="1724,1010 2325,700 2235,790 1724,1054 "/>
    <polygon class="fil0" points="1724,1054 2235,790 2264,839 1724,1116 "/>
    <polygon class="fil0" points="1724,886 1958,764 1971,765 1984,766 1996,768 2009,771 2021,775 2033,779 2044,784 2055,790 2066,797 2076,804 2086,812 2095,820 2104,829 2112,839 2119,849 2126,860 1724,1067 "/>
    <polygon class="fil0" points="1724,1160 2214,909 2264,896 1724,1173 "/>
    <polygon class="fil0" points="1724,1106 2171,876 2231,860 1724,1121 "/>
    <polygon class="fil0" points="1724,1381 2235,1122 2280,1168 1724,1448 "/>
    <polygon class="fil0" points="1724,1116 2264,839 2262,844 2259,849 2257,853 2255,858 2253,863 2251,868 2249,873 2248,878 1724,1147 "/>
    <polygon class="fil0" points="1724,1067 2126,860 2144,892 1724,1108 "/>
    <path class="fil0" d="M1724 1449l512 -258 0 43 -509 256c-2,-7 -3,-14 -3,-21l0 -20z"/>
    <polygon class="fil0" points="1724,1347 2264,1073 2235,1122 1724,1381 "/>
    <polygon class="fil0" points="1724,1300 2248,1034 2249,1039 2251,1044 2253,1049 2255,1054 2257,1059 2259,1064 2262,1069 2264,1073 1724,1347 "/>
    <polygon class="fil0" points="1724,1004 2022,850 2064,850 1724,1025 "/>
    <polygon class="fil0" points="1724,1025 2022,871 2107,871 1724,1068 "/>
    <path class="fil0" d="M1747 1527l323 -162 8 -2 9 -1 -336 168c-1,-1 -2,-2 -3,-3z"/>
    <polygon class="fil0" points="1724,1133 2193,892 2193,1020 1724,1259 "/>
    <polygon class="fil0" points="1724,1235 2144,1020 2126,1052 1724,1257 "/>
    <polygon class="fil0" points="1765,1542 2078,1385 2082,1384 2086,1383 1767,1543 "/>
    <polygon class="fil0" points="1724,1122 1971,995 1976,1000 1981,1005 1987,1010 1994,1014 2000,1016 2007,1019 2015,1020 2022,1020 1724,1173 "/>
    <polygon class="fil0" points="1724,921 1847,857 1839,865 1830,872 1821,878 1724,929 "/>
    <polygon class="fil0" points="1724,1257 2126,1052 2119,1063 2112,1074 2104,1083 2095,1092 2086,1101 2076,1109 2066,1116 2055,1123 2044,1128 1724,1291 "/>
    <path class="fil0" d="M1767 1543l319 -160 43 0 -338 169c-9,-2 -17,-5 -24,-9z"/>
    <polygon class="fil0" points="1724,1247 1958,1127 1970,1127 1982,1125 1993,1124 2004,1121 2015,1118 2025,1113 2036,1109 1724,1268 "/>
    <polygon class="fil0" points="1724,1045 1971,918 1965,927 1962,936 1959,946 1958,956 1959,966 1962,976 1965,986 1971,995 1724,1122 "/>
    <polygon class="fil0" points="1724,1173 2022,1020 2144,1020 1724,1235 "/>
    <polygon class="fil0" points="1724,1267 1873,1191 2235,1191 1724,1449 "/>
    <polygon class="fil0" points="1724,1119 1847,1056 1858,1067 1870,1077 1883,1085 1897,1093 1912,1098 1927,1102 1942,1105 1958,1106 1724,1225 "/>
    <path class="fil0" d="M1724 1309l64 -32 448 0 -492 247c-12,-15 -20,-34 -20,-54l0 -160z"/>
    <polygon class="fil0" points="1724,1443 1885,1362 1890,1362 1894,1363 1898,1364 1902,1365 1906,1367 1909,1369 1913,1372 1916,1374 1724,1471 1724,1469 "/>
    <path class="fil0" d="M1724 1471l192 -96 51 52 -214 107c-17,-15 -29,-37 -29,-62z"/>
    <path class="fil0" d="M1724 1478l176 -89 36 37 -194 97c-10,-13 -17,-28 -19,-45z"/>
    <path class="fil0" d="M1735 1512l171 -86 -21 21 -145 73c-2,-3 -4,-5 -5,-8z"/>
    <polygon class="fil0" points="1724,1437 1873,1362 1885,1362 1724,1443 "/>
    <polygon class="fil0" points="1724,1225 1958,1106 1973,1105 1988,1103 2002,1099 2016,1094 2029,1088 1724,1244 "/>
    <polygon class="fil0" points="1724,1038 1994,899 1987,903 1981,907 1976,912 1971,918 1724,1045 "/>
    <polygon class="fil0" points="1724,1125 1831,1070 1843,1082 1857,1093 1872,1103 1887,1112 1904,1118 1921,1123 1939,1126 1958,1127 1724,1247 "/>
    <path class="fil0" d="M1724 1479l149 -75 12 0 -160 80c0,-2 -1,-4 -1,-6z"/>
    <polygon class="fil0" points="2147,1554 2363,1447 2363,1452 2362,1456 2360,1459 2357,1462 2354,1465 2350,1467 2174,1554 "/>
    <polygon class="fil0" points="1985,1554 2329,1383 2342,1383 1998,1554 "/>
    <path class="fil0" d="M1753 1533l214 -107 -51 52 -140 70c-8,-4 -16,-8 -23,-14z"/>
    <polygon class="fil0" points="1724,910 1883,827 1870,836 1858,846 1847,857 1724,921 "/>
    <polygon class="fil0" points="1724,1224 1788,1191 1830,1191 1724,1245 "/>
    <polygon class="fil0" points="1724,991 1975,861 1986,856 1998,852 2010,850 2022,850 1724,1004 "/>
    <polygon class="fil0" points="1724,1043 1768,1020 1779,1021 1790,1023 1801,1026 1811,1030 1821,1035 1830,1041 1839,1048 1847,1056 1724,1119 "/>
    <polygon class="fil0" points="1957,1554 2171,1447 2171,1456 2168,1464 2164,1471 2159,1477 2153,1483 2145,1487 2010,1554 "/>
    <polygon class="fil0" points="2062,1554 2363,1405 2363,1447 2147,1554 "/>
    <polygon class="fil0" points="2041,1554 2342,1405 2342,1447 2126,1554 "/>
    <polygon class="fil0" points="1724,899 1831,843 1825,849 1818,855 1810,860 1724,905 "/>
    <polygon class="fil0" points="1724,886 1887,801 1872,809 1857,819 1843,830 1831,843 1724,899 "/>
    <polygon class="fil0" points="1724,1432 1856,1365 1864,1363 1873,1362 1724,1437 "/>
    <polygon class="fil0" points="1724,1014 1984,880 1993,876 2002,873 2012,871 2022,871 1724,1025 "/>
    <polygon class="fil0" points="1724,1245 1830,1191 1830,1234 1724,1288 "/>
    <polygon class="fil0" points="1724,1064 1768,1042 1777,1042 1786,1044 1794,1046 1802,1049 1810,1053 1818,1058 1825,1063 1831,1070 1724,1125 "/>
    <polygon class="fil0" points="1724,1456 1865,1385 1869,1384 1873,1383 1724,1458 "/>
    <polygon class="fil0" points="1724,1458 1873,1383 1886,1383 1724,1465 "/>
    <path class="fil0" d="M1724 1465l162 -81 2 0 2 0 2 1 2 1 2 1 2 1 2 1 2 1 -176 89c0,-3 -1,-6 -1,-9l0 -4z"/>
    <path class="fil0" d="M1724 1074l21 -11 0 406 -21 10c0,-3 -1,-7 -1,-10l0 -395z"/>
    <polygon class="fil0" points="1829,1554 2129,1405 2129,1447 1914,1554 "/>
    <polygon class="fil0" points="1724,1020 1768,1020 1724,1043 "/>
    <polygon class="fil0" points="1724,1042 1768,1042 1724,1064 "/>
    <polygon class="fil0" points="1935,1554 2150,1447 2150,1452 2148,1456 2146,1459 2144,1462 2141,1465 2137,1467 1962,1554 "/>
    <polygon class="fil0" points="1776,1547 1916,1477 1913,1480 1909,1483 1906,1485 1779,1548 "/>
    <path class="fil0" d="M1791 1552l295 -147 43 0 -300 149 -20 0c-6,0 -12,-1 -18,-2z"/>
    <path class="fil0" d="M1743 1523l194 -97 -36 37 -145 73c-4,-4 -9,-8 -12,-12z"/>
    <path class="fil0" d="M1778 1548l31 -16 597 0 -43 21 -553 0c-11,0 -21,-2 -31,-6z"/>
    <polygon class="fil0" points="2362,1554 2406,1533 2419,1531 2431,1528 2377,1554 "/>
    <polygon class="fil0" points="1755,1535 1900,1462 1899,1464 1897,1465 1896,1466 1756,1536 "/>
    <path class="fil0" d="M2406 1554l17 -2c6,-1 11,-3 16,-5l-16 5c-6,1 -11,2 -17,2z"/>
    <path class="fil0" d="M1725 1485l160 -80 21 21 -171 86c-5,-8 -8,-17 -10,-27z"/>
    <path class="fil0" d="M1724 1479l21 -10 1 13 4 12 6 11 8 9 9 8 11 6 12 4 13 1 -31 16c-29,-11 -50,-38 -54,-69z"/>
    <path class="fil0" d="M1724 1469l2 17c1,6 3,11 5,16l8 15c3,5 7,9 10,13l13 10c5,3 9,6 14,8l16 5c6,1 11,2 17,2l-17 -2c-6,-1 -11,-3 -16,-5l-14 -8c-5,-3 -9,-7 -13,-10l-10 -13c-3,-5 -6,-9 -8,-15l-5 -16c-1,-6 -2,-11 -2,-17z"/>
   </g>
   <g>
    <path class="fil0" d="M1854 1456l76 -38 8 8 -36 37c-4,4 -9,6 -15,6l-13 0c-9,0 -16,-5 -19,-13z"/>
    <path class="fil0" d="M1923 1412l-71 36 0 -1 0 -43c0,-12 10,-21 21,-21l13 0c6,0 11,2 15,6l23 23z"/>
    <path class="fil0" d="M1877 1469l34 -17 -11 11c-4,4 -9,6 -15,6l-8 0z"/>
    <path class="fil0" d="M1901 1390l-49 25 0 -10c0,-12 10,-21 21,-21l13 0c6,0 11,2 15,6l0 0z"/>
    <path class="fil0" d="M1929 1418l-76 38c-1,-3 -2,-6 -2,-9l0 -43c0,-12 10,-21 21,-21l13 0c6,0 11,2 15,6l29 29z"/>
    <path class="fil0" d="M1852 1446l70 -35 15 15 -26 26 -34 17 -4 0c-12,0 -21,-10 -21,-21l0 -1z"/>
    <path class="fil0" d="M1862 1465l72 -36 -10 10 -57 28c-2,-1 -4,-1 -5,-2z"/>
    <polygon class="fil0" points="1852,1422 1906,1395 1908,1397 1852,1426 "/>
    <path class="fil0" d="M1860 1464l76 -38 -36 36c-4,4 -9,6 -15,6l-13 0c-5,0 -9,-2 -13,-4z"/>
    <path class="fil0" d="M1925 1414l-73 37c0,-1 0,-2 0,-3l0 -43c0,-12 10,-21 21,-21l13 0c6,0 11,2 15,6l24 24z"/>
    <path class="fil0" d="M1873 1469l43 -21 -15 15c-4,4 -9,6 -15,6l-13 0z"/>
    <path class="fil0" d="M1909 1398l-57 29 0 -22c0,-12 10,-21 21,-21l13 0c6,0 11,2 15,6l8 8z"/>
    <path class="fil0" d="M1866 1467l60 -30 -10 10 -43 21 0 0c-3,0 -5,0 -7,-1z"/>
    <path class="fil0" d="M1937 1426l-76 38c-5,-4 -9,-10 -9,-17l0 -43c0,-12 10,-21 21,-21l13 0c6,0 11,2 15,6l36 37 0 0z"/>
    <path class="fil0" d="M1894 1385l-43 21 0 -2c0,-12 10,-21 21,-21l13 0c3,0 6,1 9,2z"/>
    <path class="fil0" d="M1852 1407l43 -21c2,1 4,3 6,4l36 37 -30 30 -25 13 -9 0c-12,0 -21,-10 -21,-21l0 -41z"/>
    <path class="fil0" d="M1852 1414l49 -25 36 37 -77 38c-5,-4 -9,-10 -9,-17l0 -33z"/>
    <path class="fil0" d="M1852 1453l54 -27 -21 21 -28 14c-2,-2 -4,-5 -5,-8z"/>
    <polygon class="fil0" points="1852,1415 1873,1405 1885,1405 1852,1422 "/>
    <path class="fil0" d="M1882 1469l25 -13 -6 6c-4,4 -9,6 -15,6l-4 0z"/>
    <path class="fil0" d="M1862 1386l2 -1 4 -1 4 0 -17 9c2,-2 4,-4 6,-6z"/>
    <path class="fil0" d="M1856 1392l17 -9 13 0 -33 17c1,-3 2,-6 4,-8z"/>
    <path class="fil0" d="M1852 1400l33 -17 2 0 2 0 2 1 2 1 0 0 2 1 2 1 2 1 2 1 -49 25 0 -9c0,-2 0,-3 0,-5z"/>
    <path class="fil0" d="M1860 1464l77 -38 -36 37 -12 6c-1,0 -2,0 -3,0l-13 0c-5,0 -9,-2 -13,-4z"/>
    <path class="fil0" d="M1889 1468l12 -6 -2 1 -2 1 0 0 0 0 0 0 -1 0 0 0 0 0 0 0 -1 0c-2,1 -4,1 -6,2z"/>
    <path class="fil0" d="M1852 1422l34 -17 21 21 -54 27c-1,-2 -1,-4 -1,-6l0 -26z"/>
   </g>
   <g>
    <path class="fil0" d="M2148 1395l-83 41 0 -31c0,-12 10,-21 21,-21l43 0c8,0 15,5 19,11z"/>
    <path class="fil0" d="M2127 1469l19 -10c-4,6 -10,10 -18,10l-2 0z"/>
    <path class="fil0" d="M2115 1469l35 -17c-1,3 -2,5 -3,8l-19 10 -12 0z"/>
    <path class="fil0" d="M2105 1469l45 -22 0 1c0,1 0,3 0,4l-35 17 -10 0z"/>
    <path class="fil0" d="M2065 1436l83 -41c2,3 2,6 2,10l0 20 -78 39c-5,-4 -8,-10 -8,-16l0 -11z"/>
    <path class="fil0" d="M2148 1395l-83 41 0 -31c0,-12 10,-21 21,-21l43 0c8,0 15,5 19,11z"/>
    <path class="fil0" d="M2067 1457l83 -41 0 32c0,5 -2,9 -4,13l-17 9 -42 0c-8,0 -16,-5 -19,-12z"/>
    <path class="fil0" d="M2107 1383l-42 21c0,-12 10,-21 21,-21l21 0z"/>
    <path class="fil0" d="M2069 1392l17 -8 0 0 43 0c12,0 21,10 21,21l0 11 -83 41c-1,-3 -2,-6 -2,-9l0 -43c0,-5 2,-9 4,-13z"/>
    <path class="fil0" d="M2065 1447l85 -43 0 43 -43 21 -21 0c-12,0 -21,-10 -21,-21l0 0z"/>
    <path class="fil0" d="M2086 1383l-17 8c4,-5 10,-8 17,-8z"/>
    <polygon class="fil0" points="2065,1415 2129,1383 2133,1384 2137,1385 2141,1387 2144,1389 2146,1393 2148,1396 2150,1400 2150,1405 2065,1447 "/>
    <path class="fil0" d="M2076 1386l2 -1 4 -1 4 0 -17 9c2,-2 4,-4 6,-6z"/>
    <path class="fil0" d="M2069 1392l17 -9 43 0 -64 32 0 -11c0,-5 2,-9 4,-13z"/>
    <path class="fil0" d="M2128 1469l17 -9c-4,5 -10,9 -17,9l0 0z"/>
    <path class="fil0" d="M2065 1436l64 -32 0 43 -43 21c-12,0 -21,-10 -21,-21l0 -11z"/>
    <path class="fil0" d="M2107 1469l43 -21 0 4 -1 4 -2 4 -3 3 -3 3 -4 2c-3,1 -5,2 -8,2l-22 0z"/>
    <polygon class="fil0" points="2065,1415 2086,1405 2129,1405 2065,1436 "/>
   </g>
   <g>
    <path class="fil0" d="M2363 1415l-64 32 -21 -21 36 -37c4,-4 9,-6 15,-6l13 0c12,0 21,10 21,21l0 11z"/>
    <path class="fil0" d="M2299 1447l64 -32 0 32c0,5 -2,9 -4,13l-18 9 -12 0c-6,0 -11,-2 -15,-6l-15 -15z"/>
    <path class="fil0" d="M2341 1469l18 -9c-4,5 -10,9 -17,9l-1 0z"/>
    <polygon class="fil0" points="2300,1404 2342,1383 2346,1384 2350,1385 2354,1387 2357,1389 2360,1393 2362,1396 2363,1400 2363,1405 2292,1440 2278,1426 "/>
    <polygon class="fil0" points="2281,1429 2329,1405 2342,1405 2285,1433 "/>
    <path class="fil0" d="M2319 1386l2 -1 0 0 2 -1 2 -1 2 0 2 0 -17 9 2 -2c1,-1 3,-3 5,-4z"/>
    <path class="fil0" d="M2322 1467l41 -20 0 4 -1 4 -2 4 -3 3 -3 3 -4 2c-3,1 -5,2 -8,2l-13 0c-2,0 -5,0 -7,-1z"/>
    <polygon class="fil0" points="2312,1392 2329,1383 2342,1383 2300,1404 "/>
    <path class="fil0" d="M2292 1440l71 -35 0 43 -41 20c-3,-1 -6,-3 -8,-5l-22 -23z"/>
    <polygon class="fil0" points="2285,1433 2342,1405 2342,1447 2313,1461 "/>
   </g>
   <g>
    <path class="fil0" d="M1218 988l223 -117 80 0 -282 148 -2 -2c-8,-8 -14,-18 -19,-29z"/>
    <path class="fil0" d="M1219 922l97 -51 125 0 -223 117c-4,-10 -6,-21 -6,-32 0,-12 3,-24 7,-34z"/>
    <path class="fil0" d="M1354 871l-141 74c5,-42 41,-74 85,-74l57 0z"/>
    <path class="fil0" d="M2005 792l-482 250 -226 0c-23,0 -45,-10 -60,-25 -15,-16 -25,-37 -25,-60 0,-47 38,-85 85,-85l470 0c24,0 47,-10 63,-28 31,-35 77,-57 127,-57 16,0 32,2 47,6z"/>
    <path class="fil0" d="M2040 806l-456 236 -286 0c-23,0 -45,-10 -60,-25 -15,-16 -25,-37 -25,-60 0,-47 38,-85 85,-85l470 0c24,0 47,-10 63,-28 31,-35 77,-57 127,-57 29,0 57,7 81,20z"/>
    <path class="fil0" d="M1871 1103l127 -65c8,2 16,4 25,4l85 0c-9,16 -21,30 -35,42l-77 39c-12,3 -25,4 -38,4 -32,0 -62,-9 -87,-24z"/>
    <path class="fil0" d="M1882 1109l132 -68c3,0 5,0 8,0l75 0 -164 84c-18,-3 -36,-8 -51,-16z"/>
    <path class="fil0" d="M1235 1015l275 -144 42 0 -301 157c-5,-3 -10,-7 -14,-11l-2 -2z"/>
    <path class="fil0" d="M1224 999l244 -128 81 0 -299 156c-5,-3 -9,-7 -13,-10 -5,-5 -10,-11 -13,-18z"/>
    <path class="fil0" d="M1216 981l210 -110 42 0 -244 128c-3,-6 -6,-12 -8,-18z"/>
    <path class="fil0" d="M1969 1127l123 -63c-29,36 -74,60 -123,63z"/>
    <path class="fil0" d="M1928 1124l162 -83 18 0c-29,51 -86,85 -149,85 -10,0 -21,-1 -31,-3z"/>
    <path class="fil0" d="M1964 1127l131 -67c-30,39 -78,65 -131,67z"/>
    <path class="fil0" d="M1988 1124l91 -46c-24,24 -56,40 -91,46z"/>
    <path class="fil0" d="M1212 961l171 -90 80 0 -241 127c-6,-11 -10,-23 -10,-36z"/>
    <path class="fil0" d="M1251 1028l301 -157 81 0 -327 171 -8 0c-17,0 -33,-5 -46,-14z"/>
    <path class="fil0" d="M1214 938l128 -67 42 0 -171 90c0,-2 0,-3 0,-5 0,-6 1,-12 2,-18z"/>
    <path class="fil0" d="M1704 871l-328 171 -79 0c-23,0 -45,-10 -60,-25 -15,-16 -25,-37 -25,-60 0,-47 38,-85 85,-85l407 0z"/>
    <path class="fil0" d="M1765 1042l172 -89 0 3c0,18 6,36 17,51 4,6 9,11 14,15l-122 63c-5,-5 -11,-10 -15,-15 -16,-18 -39,-28 -63,-28l-3 0zm332 -171l8 -4 3 4 -11 0z"/>
    <path class="fil0" d="M1854 1091l123 -63c7,4 14,8 21,10l-127 65c-6,-4 -12,-8 -17,-12z"/>
    <path class="fil0" d="M1874 1105l128 -65c4,1 9,2 13,2l-132 68c-3,-1 -6,-3 -8,-4z"/>
    <path class="fil0" d="M1854 1091l123 -63c7,4 14,8 21,10l-127 65c-6,-4 -12,-8 -17,-12z"/>
    <path class="fil0" d="M1626 1042l433 -224c8,6 15,12 22,19l-67 35c-22,2 -42,12 -56,29l-274 141 -58 0z"/>
    <path class="fil0" d="M1739 1042l199 -103c-1,5 -2,9 -2,14l-172 89 -26 0zm331 -171l27 -14c2,3 5,7 7,10l-8 4 -26 0z"/>
    <path class="fil0" d="M1683 1042l276 -142c-2,2 -3,4 -5,6 -12,15 -17,33 -17,51l0 1 -164 84c-2,0 -4,0 -5,0l-85 0zm330 -170l68 -35c10,10 19,21 26,34l-2 1 -83 0c-3,0 -6,0 -10,1z"/>
    <polygon class="fil0" points="1800,1048 1939,976 1940,979 1804,1049 "/>
    <path class="fil0" d="M1379 1042l328 -171 46 0 -328 171 -46 0zm510 -241l-16 9c5,-3 11,-6 16,-9z"/>
    <polygon class="fil0" points="1399,1042 1727,871 1743,871 1414,1042 "/>
    <polygon class="fil0" points="1376,1042 1704,871 1727,871 1399,1042 "/>
    <path class="fil0" d="M1609 1042l443 -229c16,10 30,23 42,37l-41 21 -30 0c-27,0 -52,13 -68,34 -5,7 -9,15 -12,23l-221 114 -112 0z"/>
    <polygon class="fil0" points="1804,1049 1940,979 1941,981 1806,1050 "/>
    <path class="fil0" d="M1721 1042l221 -114 -1 2 -216 111 -4 0zm331 -171l41 -21 1 1 -38 20 -4 0z"/>
    <path class="fil0" d="M1837 1076l122 -63c16,18 39,28 63,28l85 0c-4,7 -8,13 -13,19l-131 67 -6 0c-48,0 -90,-20 -121,-51z"/>
    <path class="fil0" d="M1717 1042l225 -116c-4,10 -6,20 -6,31 0,7 1,13 2,20l-139 72c-10,-4 -21,-6 -32,-6l-50 0zm331 -171l43 -22c6,7 11,14 15,22l-59 0z"/>
    <path class="fil0" d="M1663 1042l411 -212c10,9 19,19 27,30l-22 11 -56 0c-27,0 -52,13 -68,34 -9,11 -14,25 -16,38l-191 98 -84 0z"/>
    <path class="fil0" d="M1747 1042l191 -98c-1,4 -1,9 -1,13 0,15 4,31 12,44l-124 63c-16,-14 -36,-22 -58,-22l-21 0zm332 -171l22 -11c3,4 5,7 7,11l-29 0z"/>
    <path class="fil0" d="M1425 1042l328 -171 15 0c24,0 47,-10 63,-28 12,-13 26,-25 41,-34l16 -9c21,-10 45,-15 70,-15 63,0 119,34 149,84l-2 1 -83 0c-27,0 -52,13 -68,34 -12,15 -17,33 -17,51l0 1 -164 84c-2,0 -3,0 -5,0l-343 0z"/>
    <path class="fil0" d="M1856 1092l123 -63c4,2 8,5 13,6l-125 64c-4,-2 -7,-5 -11,-7z"/>
    <path class="fil0" d="M1817 1057l127 -65c2,4 4,8 7,12l-123 63c-3,-4 -7,-7 -11,-10z"/>
    <path class="fil0" d="M1826 1064l124 -63c1,2 3,5 5,7 4,5 9,10 14,14l-122 62c-5,-5 -10,-9 -15,-15 -2,-2 -4,-4 -5,-6z"/>
    <path class="fil0" d="M1773 1042l164 -84c0,13 3,25 9,37l-126 65c-13,-10 -30,-16 -47,-17zm332 -171l2 -1 1 1 -2 0z"/>
    <path class="fil0" d="M1650 1042l372 -192 42 0 -41 21 0 0c-27,0 -52,13 -68,34l-2 2 -261 135 -41 0z"/>
    <path class="fil0" d="M1691 1042l262 -135c-11,15 -16,32 -16,50l0 2 -162 83c-2,0 -5,0 -7,0l-77 0z"/>
    <path class="fil0" d="M1836 1075l122 -63c16,18 39,29 64,29l85 0c-8,13 -17,26 -29,37l-91 46c-10,2 -20,3 -30,3 -48,0 -91,-20 -122,-52z"/>
    <path class="fil0" d="M1938 1126l165 -84 5 0c-7,12 -15,23 -25,33l-100 51c-8,1 -16,2 -24,2 -7,0 -14,0 -21,-1z"/>
    <path class="fil0" d="M1829 1068l123 -63 2 3c10,13 23,23 38,28l-125 64c-13,-8 -25,-19 -35,-30l-2 -2z"/>
    <polygon class="fil0" points="1491,1042 1847,857 1839,865 1830,872 1821,878 1506,1042 "/>
    <path class="fil0" d="M1983 1125l100 -51c-26,27 -61,45 -100,51z"/>
    <path class="fil0" d="M1958 1127l12 0c-4,0 -8,0 -12,0zm12 0l12 -1c-4,1 -8,1 -12,1zm12 -1l11 -2c-4,1 -8,1 -11,2zm11 -2l11 -3c-4,1 -7,2 -11,3zm11 -3l11 -3c-4,1 -7,2 -11,3zm11 -3l11 -4c-3,1 -7,3 -11,4zm11 -4l10 -5c-3,2 -7,3 -10,5z"/>
    <path class="fil0" d="M1731 1042l209 -108c-2,7 -3,15 -3,22 0,17 5,34 15,48l-123 63c-16,-17 -38,-26 -61,-26l-37 0z"/>
    <path class="fil0" d="M1866 1100l125 -64c10,4 20,6 31,6l80 0 -165 84c-26,-3 -50,-12 -71,-26z"/>
    <path class="fil0" d="M1827 1066l20 -10 11 11 12 10 13 9 14 7 15 6 15 4 16 3 16 1 -35 18c-37,-8 -69,-27 -92,-54 -1,-1 -3,-3 -4,-4z"/>
    <path class="fil0" d="M1923 1123l35 -18 15 -1 15 -2 14 -4 14 -5 13 -6 -76 39c-10,0 -20,-2 -30,-4z"/>
    <path class="fil0" d="M1717 1042l226 -116c-1,3 -2,6 -3,9l-209 108 -14 0z"/>
    <path class="fil0" d="M1831 1070l12 13c-4,-4 -8,-8 -12,-13zm12 13l14 11c-5,-4 -9,-7 -14,-11zm14 11l15 10c-5,-3 -10,-6 -15,-10zm15 10l16 8c-5,-2 -11,-5 -16,-8zm16 8l17 7c-6,-2 -11,-4 -17,-7zm17 7l17 5c-6,-1 -12,-3 -17,-5zm17 5l18 3c-6,-1 -12,-2 -18,-3zm18 3l19 1c-6,0 -13,0 -19,-1z"/>
    <polygon class="fil0" points="1470,1042 1883,827 1870,836 1858,846 1847,857 1491,1042 "/>
    <polygon class="fil0" points="1625,1042 1975,861 1986,856 1998,852 2010,850 2022,850 1650,1042 "/>
    <path class="fil0" d="M1727 1042l41 -21 11 1 11 2 11 3 10 4 10 5 9 6 9 7 8 8 -20 10c-16,-15 -37,-24 -59,-24l-41 0z"/>
    <path class="fil0" d="M1449 1042l330 -171c9,-1 18,-4 26,-7l-344 179 -11 0z"/>
    <path class="fil0" d="M1425 1042l328 -171 15 0c4,0 7,0 11,-1l-330 171 -24 0zm449 -233l14 -7 -16 8 1 -1zm-1 1l-15 10c5,-4 10,-7 15,-10zm-15 10l-14 11c4,-4 9,-8 14,-11zm-14 11l-12 13c4,-4 8,-9 12,-13z"/>
    <path class="fil0" d="M1671 1042l312 -161c-11,6 -21,14 -28,24l-1 2 -262 135 -20 0z"/>
    <path class="fil0" d="M1724 871l0 171 -426 0c-23,0 -45,-10 -60,-25 -15,-16 -25,-37 -25,-60 0,-47 38,-85 85,-85l426 0z"/>
    <path class="fil0" d="M1661 871l-327 171 -37 0c-23,0 -45,-10 -60,-25 -15,-16 -25,-37 -25,-60 0,-47 38,-85 85,-85l364 0z"/>
    <path class="fil0" d="M1218 926l55 -29 -11 6 -9 8 -8 9 -6 11 -4 12 -1 13 -21 11c0,-4 -1,-7 -1,-11 0,-11 2,-21 5,-30z"/>
    <path class="fil0" d="M1215 978l82 -43 4 0 4 1 4 2 3 3 3 3 2 4 1 4 0 4 -92 48c-5,-8 -9,-17 -12,-26z"/>
    <path class="fil0" d="M1267 1036l30 -16 471 0 -41 21 -429 0c-11,0 -21,-2 -30,-6z"/>
    <path class="fil0" d="M1252 884l13 -7 -14 8 2 -1zm-2 1l-13 10c4,-4 8,-7 13,-10zm-13 10l-10 13c3,-5 7,-9 10,-13zm-10 13l-8 15c2,-5 5,-10 8,-15zm-8 15l-5 16c1,-6 3,-11 5,-16zm-5 16l-2 17c0,-6 1,-12 2,-17z"/>
    <polygon class="fil0" points="1214,976 1289,937 1293,935 1297,935 1215,978 "/>
    <path class="fil0" d="M1227 1004l92 -48 0 4 -1 4 -2 4 -3 3 -3 3 -4 2 -72 38c-3,-3 -5,-6 -7,-9z"/>
    <path class="fil0" d="M1213 967l21 -11 1 13 4 12 6 11 8 9 9 8 11 6 12 4 13 1 -30 16c-11,-4 -22,-11 -30,-19 -13,-13 -22,-30 -24,-50z"/>
    <line class="fil0" x1="1233" y1="956" x2="1233" y2= "956" />
    <path class="fil0" d="M1212 956l0 9c0,-3 0,-6 0,-9zm0 9l1 8c-1,-3 -1,-6 -1,-8zm1 8l2 8c-1,-3 -2,-5 -2,-8zm2 8l3 8c-1,-3 -2,-5 -3,-8zm3 8l4 7c-1,-2 -3,-5 -4,-7zm4 7l4 7c-2,-2 -3,-5 -4,-7zm4 7l5 7c-2,-2 -3,-4 -5,-7zm5 7l5 6c-2,-2 -4,-4 -5,-6z"/>
    <path class="fil0" d="M1237 1017l6 5c-2,-2 -4,-4 -6,-5zm6 5l7 5c-2,-2 -4,-3 -7,-5zm7 5l7 4c-2,-1 -5,-3 -7,-4zm7 4l7 4c-3,-1 -5,-2 -7,-4zm7 4l8 3c-3,-1 -5,-2 -8,-3zm8 3l8 2c-3,-1 -5,-1 -8,-2zm8 2l8 1c-3,0 -6,-1 -8,-1zm8 1l9 0c-3,0 -6,0 -9,0z"/>
   </g>
   <g>
    <path class="fil0" d="M2386 1189l84 -42 0 87 -43 21 -14 -55c-10,-3 -19,-7 -28,-11z"/>
    <path class="fil0" d="M2267 1155l122 -62c29,21 64,34 102,34l-115 58 -2 -1 -21 12 -30 15 -43 -44 -13 -13z"/>
    <path class="fil0" d="M2214 1026l107 -55c1,12 3,24 7,35l-77 39c-1,-4 -3,-7 -4,-11l-33 -8z"/>
    <path class="fil0" d="M2251 1046l77 -39c6,20 16,38 28,55l8 8 -122 61 -8 -8 29 -49c-5,-9 -9,-18 -13,-28z"/>
    <path class="fil0" d="M2193 938l160 -82c-20,28 -32,63 -32,100l0 1 -125 63 -3 -1 0 -82z"/>
    <path class="fil0" d="M2193 950l149 -76c-9,16 -15,34 -18,52l-131 67 0 -43z"/>
    <line class="fil0" x1="2491" y1="1127" x2="2491" y2= "1127" />
    <path class="fil0" d="M2193 1013l128 -65c0,3 0,6 0,9 0,14 2,28 5,41l-77 39 -1 -2 -55 -14 0 -8z"/>
    <path class="fil0" d="M2273 1160l123 -62c13,9 28,16 44,21l-139 70 -21 -21 -7 -7z"/>
    <path class="fil0" d="M2248 1036l77 -39c6,24 17,45 31,64l30 30 3 2 -122 62 -32 -32 29 -49c-6,-12 -12,-24 -16,-37z"/>
    <path class="fil0" d="M2193 989l131 -67c-2,11 -3,22 -3,34 0,11 1,21 3,31l-87 44 -44 -11 0 -31z"/>
    <path class="fil0" d="M2237 1031l87 -44c5,27 17,53 33,74l30 30c3,2 6,5 10,7l-123 62 -38 -38 29 -49c-6,-13 -12,-26 -16,-39l-11 -3z"/>
    <polygon class="fil0" points="2258,1145 2380,1084 2386,1091 2373,1108 2272,1159 "/>
    <path class="fil0" d="M2272 1159l102 -51 11 8 11 7 12 6 12 5 12 5 13 4 13 3 13 2 -84 42c-4,-2 -8,-4 -11,-6l-49 29 -45 -45 -9 -9z"/>
    <path class="fil0" d="M2193 1011l107 -54 1 16 2 16 3 15 4 15 6 15 7 14 8 14 9 13 -102 51 -3 -3 29 -49c-6,-13 -12,-26 -16,-39l-55 -14 0 -10z"/>
    <polygon class="fil0" points="2322,1210 2374,1184 2325,1213 "/>
    <polygon class="fil0" points="2306,1193 2373,1160 2329,1186 2309,1196 "/>
    <path class="fil0" d="M2239 798l134 -69 1 0c13,-6 26,-12 39,-16l1 -5 55 -28 0 87 -277 142 0 -15 55 -14c4,-14 10,-27 16,-39l-25 -42z"/>
    <path class="fil0" d="M2193 917l217 -111c-23,12 -42,29 -57,50l-160 82 0 -21z"/>
    <path class="fil0" d="M2193 941l157 -80c-3,4 -5,8 -8,13l-149 76 0 -9z"/>
    <path class="fil0" d="M2193 917l217 -111c-23,12 -42,29 -57,50l-160 82 0 -21z"/>
    <path class="fil0" d="M2429 657l-1 1 0 -1 1 0zm-93 48l-33 17 23 -23 10 6z"/>
    <path class="fil0" d="M2243 782l119 -61 12 7 -134 69 -4 -7 8 -8zm176 -91l25 -13 26 0 -55 28 4 -15z"/>
    <path class="fil0" d="M2304 721l31 -16 40 24c13,-6 26,-12 39,-16l-172 89 -6 -11 69 -69z"/>
    <polygon class="fil0" points="2250,816 2384,748 2388,745 2393,743 2397,741 2402,739 2406,737 2411,736 2415,734 2420,733 2252,819 "/>
    <polygon class="fil0" points="2353,716 2263,762 2325,700 "/>
    <polygon class="fil0" points="2252,819 2420,733 2431,729 2253,821 "/>
    <polygon class="fil0" points="2263,762 2353,716 2354,717 2259,766 "/>
    <path class="fil0" d="M2193 894l5 -3 50 -13c2,-5 4,-11 6,-16l150 -77 -15 9 -14 10 -13 11 -12 12 -11 13 -10 14 -8 15 -7 16 -6 17 -4 17 -3 18 -1 18 -107 54 0 -117z"/>
    <polygon class="fil0" points="2267,759 2329,727 2373,753 2250,816 2235,790 "/>
    <polygon class="fil0" points="2193,920 2214,909 2264,896 2193,933 "/>
    <polygon class="fil0" points="2248,878 2193,906 2193,892 "/>
   </g>
   <g>
    <path class="fil0" d="M2389 1093l102 -51 0 85c-38,0 -73,-13 -102,-34z"/>
    <path class="fil0" d="M2321 971l90 -46c-4,10 -6,20 -6,31 0,4 0,7 1,10l-78 40c-4,-11 -6,-23 -7,-35z"/>
    <path class="fil0" d="M2328 1007l78 -40c3,26 18,48 39,62l-81 41 -8 -8c-12,-16 -22,-35 -28,-55z"/>
    <path class="fil0" d="M2353 856l138 -71 0 85c-28,0 -53,14 -69,35l-102 52 0 -1c0,-37 12,-72 32,-100z"/>
    <path class="fil0" d="M2342 874l128 -66 0 43 -147 75c3,-19 10,-36 18,-52z"/>
    <line class="fil0" x1="2491" y1="1127" x2="2491" y2= "1127" />
    <path class="fil0" d="M2321 947l126 -64c-1,1 -3,2 -4,2 -5,3 -9,7 -13,10 -4,4 -7,8 -10,13 -3,5 -6,9 -8,15 -2,5 -4,10 -5,16 -1,6 -2,11 -2,17l-80 41c-3,-13 -5,-27 -5,-41 0,-3 0,-6 0,-9z"/>
    <path class="fil0" d="M2396 1098l74 -37 0 43 -30 15c-16,-5 -30,-12 -44,-21z"/>
    <path class="fil0" d="M2326 997l80 -41c0,6 1,12 2,17 1,6 3,11 5,16 2,5 5,10 8,15 3,5 7,9 10,13 4,4 8,7 13,10 5,3 9,6 14,8 5,2 10,4 16,5 6,1 11,2 17,2l-102 51 -3 -2 -30 -30c-14,-19 -25,-40 -31,-64z"/>
    <path class="fil0" d="M2324 922l112 -57 -15 11 -13 13 -10 15 -8 16 -5 18 -2 19 -61 31c-2,-10 -3,-20 -3,-31 0,-12 1,-23 3,-34z"/>
    <path class="fil0" d="M2324 987l61 -31 2 19 5 18 8 16 10 15 13 13 15 11 16 8 18 5 -74 37c-3,-2 -7,-5 -10,-7l-30 -30c-16,-21 -28,-46 -33,-74z"/>
    <polygon class="fil0" points="2380,1084 2400,1074 2386,1091 "/>
    <path class="fil0" d="M2410 806l15 -7 16 -6 16 -4 17 -3 17 -1 -138 71c15,-21 34,-38 57,-50z"/>
    <path class="fil0" d="M2349 861l70 -36 12 -6 12 -5 13 -4 13 -3 -128 66c2,-4 5,-9 8,-13z"/>
    <path class="fil0" d="M2410 806l15 -7 16 -6 16 -4 17 -3 17 -1 -138 71c15,-21 34,-38 57,-50z"/>
   </g>
   <g>
    <path class="fil0" d="M1199 998l38 -20c4,12 12,22 22,30l-40 21c-8,-9 -15,-19 -20,-31zm201 -106l81 -43 80 0 -82 43 -80 0zm302 -158l43 -22 0 42 -43 22 0 -42zm268 -140l81 -43 81 0 -82 43 -81 0z"/>
    <path class="fil0" d="M1193 936l164 -86 125 0 -81 43 -103 0c-35,0 -64,29 -64,64l0 0c0,8 1,15 4,22l-38 20c-5,-13 -8,-27 -8,-42 0,-7 1,-14 2,-20zm510 -269l43 -22 0 66 -43 22 0 -66zm141 -74l81 -43 127 0 -81 43 -127 0z"/>
    <path class="fil0" d="M1202 909l113 -60 79 0 -81 43 -16 0c-27,0 -49,16 -59,39l-48 25 0 0c0,-17 4,-33 11,-47zm501 -264l43 -22 0 42 -43 22 0 -42zm98 -52l81 -43 81 0 -81 43 -81 0z"/>
    <path class="fil0" d="M1235 870l27 -14c11,-4 23,-6 36,-6l18 0 -113 60c8,-16 19,-29 33,-40zm467 -247l43 -23 0 22 -43 22 0 -22zm56 -30l81 -43 42 0 -81 43 -42 0z"/>
    <path class="fil0" d="M1702 573l43 -23 725 0 -82 43 -642 0 0 256 23 0c18,0 35,-8 47,-21 36,-41 89,-65 143,-65 25,0 50,5 73,14l-57 29c-5,-1 -11,-1 -16,-1 -42,0 -83,18 -111,50 -20,22 -49,35 -79,35l-471 0c-35,0 -64,29 -64,64l0 0c0,35 29,64 64,64l267 0 -82 43 -184 0c-59,0 -107,-48 -107,-107 0,-59 48,-107 107,-107l405 0 0 -276z"/>
    <path class="fil0" d="M1702 583l21 -11 767 0 -41 21 -705 0 0 256 23 0c18,0 35,-8 47,-21 36,-41 89,-65 143,-65 37,0 73,11 104,30l-46 24c-18,-7 -37,-11 -58,-11 -42,0 -83,18 -111,50 -20,22 -49,35 -79,35l-471 0c-35,0 -64,29 -64,64l0 0c0,35 29,64 64,64l328 0 -83 43 -245 0c-59,0 -107,-48 -107,-107 0,-59 48,-107 107,-107l405 0 0 -266z"/>
    <path class="fil0" d="M1702 1532l54 -27c12,17 31,28 53,28l62 0 -82 41c-16,-3 -31,-10 -44,-20l0 42 -41 20c-1,-6 -2,-13 -2,-19l0 -65zm607 -304l101 -51c3,1 6,2 9,3l11 4 13 50 26 0 -62 31 -12 -48c-7,-3 -14,-5 -20,-9l-53 32 -12 -12z"/>
    <path class="fil0" d="M1702 1439l43 -21 0 51c0,11 3,20 7,29l-50 25 0 -83zm545 -275l40 -20 42 42 45 -27 11 5c5,3 11,5 16,8l-97 49 -56 -56zm135 -68l29 -15c18,12 38,19 59,22l0 -43c-4,-1 -7,-2 -11,-3l32 -16 0 85 -36 18c-30,-6 -58,-18 -82,-37l9 -11z"/>
    <path class="fil0" d="M1702 1286l43 -22 0 38 -43 22 0 -38zm272 -138l132 -67c-33,38 -80,63 -132,67zm211 -107l58 -29 21 5 4 11c1,3 2,5 3,8l-38 19 -1 -3 -46 -12zm116 -59l41 -21c0,12 2,24 5,36l-39 20c-4,-11 -6,-23 -8,-35zm85 -43l75 -38c-3,2 -6,3 -8,5 -3,2 -5,4 -7,6 -2,2 -4,5 -6,7 -2,3 -4,5 -5,8 -1,3 -3,6 -4,9 -1,3 -2,6 -2,10 -1,3 -1,7 -1,10l-41 21c-1,-7 -2,-14 -2,-21 0,-6 1,-12 2,-18z"/>
    <path class="fil0" d="M1702 1324l43 -22 0 80 -43 22 0 -80zm530 -269l38 -19c3,9 8,19 12,28l5 11 -27 45 2 2 -40 20 -15 -15 32 -53c-3,-6 -5,-12 -7,-17zm77 -39l39 -20c5,18 14,36 26,51l-34 26c-14,-18 -24,-37 -31,-58zm78 -39l41 -21c0,3 0,7 1,10 1,3 1,7 2,10 1,3 2,6 4,9 1,3 3,6 5,8 2,3 4,5 6,7 2,2 5,4 7,6 3,2 5,4 8,5 3,2 6,3 9,4l-45 23c-19,-15 -33,-37 -38,-62z"/>
    <path class="fil0" d="M1702 1189l43 -22 0 84 -43 22 0 -83zm146 -75l45 -23c20,10 42,15 64,15 40,0 78,-16 106,-43l-42 0c-17,0 -34,-4 -50,-12l59 -30 112 0 -19 32c-1,2 -3,4 -4,6l-175 89c-35,-2 -69,-14 -98,-34zm323 -165l43 -22 0 76 11 3 -53 27 0 -85zm146 -75l173 -89 0 85 -101 51c12,-36 42,-63 80,-71l0 -43c-69,10 -123,67 -128,138l-43 22c0,-4 0,-8 0,-12 0,-29 7,-57 18,-82z"/>
    <path class="fil0" d="M1702 1201l43 -22 0 42 -43 22 0 -42zm157 -80l47 -24c16,6 34,9 52,9 5,0 10,0 15,-1l-69 35c-16,-5 -31,-11 -44,-20zm126 -64l70 -36 84 0 -84 43 -33 0c-13,0 -25,-2 -37,-7zm186 -95l43 -22 0 43 -43 22 0 -43zm140 -71l73 -37c-17,17 -29,38 -36,61l-48 24c2,-17 5,-33 11,-49zm159 -38l-50 26c14,-13 31,-22 50,-26z"/>
    <path class="fil0" d="M1216 1025l39 -21c6,5 12,9 19,12l-44 23c-5,-4 -10,-9 -14,-14zm253 -133l82 -43 42 0 -82 43 -42 0zm233 -122l43 -22 0 22 -43 22 0 -22z"/>
    <path class="fil0" d="M1205 1009l38 -20c7,12 17,21 30,26l-44 23c-10,-8 -18,-18 -24,-29zm222 -117l81 -43 81 0 -82 43 -80 0zm275 -144l43 -22 0 42 -43 22 0 -42z"/>
    <path class="fil0" d="M1197 991l38 -20c2,6 4,13 7,18l-38 20c-3,-6 -6,-12 -8,-18zm188 -99l81 -43 42 0 -81 43 -42 0zm317 -167l43 -22 0 22 -43 22 0 -22z"/>
    <path class="fil0" d="M1729 1667l40 -20c11,9 25,14 40,14l58 0 -81 40c-23,-5 -43,-17 -57,-34zm184 -91l86 -43 128 0 -86 43 -127 0z"/>
    <path class="fil0" d="M1786 1701l81 -40 85 0 -86 43 -57 0c-8,0 -16,-1 -23,-3zm254 -126l86 -43 86 0 -86 43 -86 0z"/>
    <path class="fil0" d="M1725 1662l40 -20c1,1 3,3 4,4l-40 20c-1,-1 -2,-3 -4,-4zm175 -87l86 -43 12 0 -86 43 -12 0z"/>
    <path class="fil0" d="M1722 1659l39 -19c1,1 2,2 3,3l-40 20 -3 -4zm168 -84l86 -43 10 0 -86 43 -10 0z"/>
    <path class="fil0" d="M1866 1703l86 -43 53 0 -87 43 -53 0zm259 -128l86 -43 53 0 -87 43 -53 0z"/>
    <path class="fil0" d="M1743 1681l46 -23c6,2 13,3 20,3l37 0 -73 36c-11,-4 -21,-10 -30,-17zm212 -105l86 -43 64 0 -86 43 -64 0z"/>
    <path class="fil0" d="M1756 1689l57 -28 12 0 -64 32c-2,-1 -4,-2 -6,-3zm229 -114l86 -43 12 0 -86 43 -12 0z"/>
    <line class="fil0" x1="2491" y1="1127" x2="2491" y2= "1127" />
    <path class="fil0" d="M1704 1616l41 -20 0 1c0,10 2,19 6,27l-38 19c-4,-8 -7,-17 -9,-27zm85 -42l82 -41 63 0 -86 43 -39 0c-7,0 -13,-1 -20,-2zm618 -309l20 -10 64 0 -43 21 -38 0 -3 -12z"/>
    <path class="fil0" d="M1702 1556l70 -35c10,7 23,12 37,12l62 0 -82 41c-16,-3 -31,-10 -44,-20l0 42 -41 20c-1,-6 -2,-13 -2,-19l0 -40zm685 -343l26 -13 14 55 -20 10 -12 -48c-3,-1 -6,-2 -8,-3z"/>
    <path class="fil0" d="M1702 1262l43 -22 0 51 -43 22 0 -51zm228 -116l200 -102 -5 8c-34,59 -99,96 -168,96 -9,0 -19,-1 -28,-2zm241 -123l43 -22 0 2 50 13 3 10 -46 23 -50 -13 0 -13zm128 -65l44 -22c-1,7 -1,13 -1,20 0,10 1,21 3,31l-39 20c-4,-16 -7,-32 -7,-49zm96 -49l63 -32 -14 8 -13 10 -10 13 -8 15 -5 16 -2 17 -21 11c0,-3 -1,-7 -1,-11 0,-17 4,-33 11,-47z"/>
    <path class="fil0" d="M1737 1675l43 -21 2 1 -44 22 -2 -2zm201 -100l86 -43 5 0 -86 43 -5 0z"/>
    <path class="fil0" d="M1702 1448l43 -21 0 42 -43 21 0 -42zm550 -277l40 -20 29 29 -40 20 -28 -29zm122 -62l44 -22c16,9 33,15 51,17l-56 28c-14,-6 -27,-14 -39,-23z"/>
    <path class="fil0" d="M1702 1314l43 -22 0 126 -43 21 0 -126zm519 -264l46 -23 0 1c4,12 9,24 15,36l5 11 -27 45 25 26 -40 20 -39 -39 32 -53c-3,-7 -6,-14 -9,-20l-9 -2zm84 -43l39 -20c5,22 14,43 28,61l-34 26c-16,-20 -27,-43 -34,-67zm79 -40l21 -11 2 17 5 16 8 15 10 13 13 10 14 8 16 5 17 2 -32 16c-40,-13 -70,-48 -74,-91zm26 115l-29 15 18 -23c4,3 7,6 11,8z"/>
    <path class="fil0" d="M1702 1239l43 -22 0 64 -43 22 0 -64zm196 -100l65 -33c38,-1 73,-17 100,-43l-16 0 84 -43 13 0 -19 32c-34,59 -99,96 -168,96 -20,0 -40,-3 -59,-9zm273 -139l43 -22 0 26 50 13 0 1 -57 29 -36 -9 0 -37zm129 -66l49 -25c-5,15 -8,31 -8,47 0,7 0,14 1,21l-40 20c-3,-13 -4,-27 -4,-41 0,-8 0,-15 1,-22zm135 -69l-15 11c-5,4 -9,8 -13,13l-10 15c-3,5 -6,11 -8,16l-5 18c-1,6 -2,12 -2,19l2 -19c1,-6 3,-12 5,-18l8 -16c3,-5 6,-10 10,-15l13 -13c5,-4 9,-7 15,-11z"/>
    <path class="fil0" d="M1702 1303l43 -22 0 145 -43 21 0 -145zm505 -257l57 -29 3 10c4,12 9,24 15,36l5 11 -27 45 31 31 -40 20 -45 -45 32 -53c-3,-7 -6,-14 -9,-20l-23 -6zm96 -49l40 -20c4,26 14,50 30,71l-34 26c-18,-23 -30,-49 -36,-77zm81 -41l2 19c1,6 3,12 5,18l8 16c3,5 6,10 10,15l13 13c5,4 9,7 15,11l16 8c6,2 12,4 18,5l-18 -5c-6,-2 -11,-5 -16,-8l-15 -11c-5,-4 -9,-8 -13,-13l-10 -15c-3,-5 -6,-11 -8,-16l-5 -18c-1,-6 -2,-12 -2,-19zm34 130l-44 22 -1 -1 26 -34c6,5 12,9 19,13z"/>
    <path class="fil0" d="M1702 1426l43 -22 0 20 -43 21 0 -20zm536 -270l40 -20 14 14 -40 20 -14 -14z"/>
    <path class="fil0" d="M1702 1446l43 -21 0 44c0,13 4,26 11,36l-54 27 0 -86zm549 -277l40 -20 37 37 45 -27 11 5c9,5 18,9 27,12l-101 51 -58 -58zm122 -61l11 8c4,2 7,5 11,7l12 6c4,2 8,4 12,5l12 5c4,1 8,3 13,4l13 3c4,1 9,1 13,2l-13 -2c-4,-1 -9,-2 -13,-3l-13 -4c-4,-1 -8,-3 -12,-5l-12 -5c-4,-2 -8,-4 -12,-6l-11 -7c-4,-3 -7,-5 -11,-8z"/>
    <path class="fil0" d="M1702 1260l43 -22 0 136 -43 22 0 -136zm225 -114l205 -104 -6 11c-34,59 -99,96 -168,96 -10,0 -21,-1 -31,-3zm244 -124l43 -22 0 4 50 13 4 11c4,12 9,24 15,36l5 11 -22 37 -48 24 -10 -10 32 -53c-3,-7 -6,-14 -9,-20l-60 -15 0 -15zm128 -65l1 16c0,5 1,11 2,16l3 15c1,5 3,10 4,15l6 15c2,5 4,10 7,14l8 14c3,4 6,9 9,13l-9 -13c-3,-4 -6,-9 -8,-14l-7 -14c-2,-5 -4,-10 -6,-15l-4 -15c-1,-5 -2,-10 -3,-15l-2 -16c0,-5 -1,-11 -1,-16z"/>
    <path class="fil0" d="M1702 1521l49 -25c5,10 12,19 21,25l-70 35 0 -35zm600 -301l72 -36 5 2 5 2 5 2 5 2 5 2 5 2 5 2 5 2 -26 13c-4,-2 -8,-3 -12,-5l-53 32 -20 -20z"/>
    <path class="fil0" d="M1702 1545l62 -31c1,1 2,2 3,3l-65 33 0 -5zm616 -309l56 -28 -53 32 -3 -3z"/>
    <path class="fil0" d="M1702 1497l43 -22c0,1 0,3 1,4l-43 22 0 -4zm583 -293l40 -20 3 3 -40 20 -3 -3z"/>
    <path class="fil0" d="M1702 1270l43 -22 0 41 -43 22 0 -41zm240 -122l182 -93c-35,58 -98,93 -166,93 -5,0 -11,0 -16,-1zm229 -117l21 -11 55 14 -29 15 -47 -12 0 -6z"/>
    <path class="fil0" d="M1192 972l42 -22c0,2 0,4 0,7l0 0c0,11 3,22 8,31l-38 20c-6,-11 -10,-23 -12,-36zm151 -80l81 -43 80 0 -81 43 -80 0zm359 -189l43 -22 0 43 -43 22 0 -43z"/>
    <path class="fil0" d="M1230 1039l44 -23c7,3 15,4 23,4l49 0 -75 39c-15,-4 -29,-11 -41,-21zm281 -147l82 -43 81 0 -82 43 -81 0zm191 -100l43 -22 0 42 -43 22 0 -42z"/>
    <path class="fil0" d="M1191 950l52 -27c-5,8 -8,17 -9,27l-42 22c-1,-5 -1,-10 -1,-15 0,-2 0,-4 0,-6zm110 -58l81 -43 42 0 -81 43 -42 0zm401 -211l43 -22 0 22 -43 22 0 -22z"/>
    <path class="fil0" d="M1702 616l43 -23 0 256 -82 43 -366 0c-35,0 -64,29 -64,64l0 0c0,35 29,64 64,64l120 0 -82 43 -38 0c-59,0 -107,-48 -107,-107 0,-59 48,-107 107,-107l405 0 0 -234z"/>
    <path class="fil0" d="M1709 1635l38 -19c4,13 12,23 22,31l-40 20c-8,-9 -15,-20 -20,-32zm119 -59l86 -43 85 0 -86 43 -85 0z"/>
    <path class="fil0" d="M1702 1544l61 -30c11,12 27,19 45,20l-54 27c-3,-2 -6,-4 -9,-6l0 11 -43 21 0 -42z"/>
    <path class="fil0" d="M1702 1074l96 -49c19,6 36,16 49,31 6,7 13,13 20,19l-41 21c-4,-4 -8,-7 -11,-11 -12,-13 -29,-21 -47,-21l-23 0 0 74 -43 22 0 -85zm214 -110l44 -23c-4,18 -1,38 11,53 5,7 12,12 19,17l-42 21c-4,-4 -8,-8 -11,-13 -13,-17 -19,-36 -21,-56zm139 -72l69 -35 2 3 19 32 -89 0zm165 -85l57 -29 -16 16 27 45 -5 11c-3,5 -5,11 -8,16l-104 53 0 -43 60 -15c3,-7 5,-14 9,-20l-19 -33zm131 -67l89 -46 -9 35 -11 4c-12,4 -24,9 -36,15l-10 5 -22 -13zm119 26l-121 62c31,-34 73,-56 121,-62z"/>
    <path class="fil0" d="M1702 1459l43 -21 0 32c0,11 3,22 8,31l-51 25 0 -67zm558 -281l20 -10 45 45 -20 10 -45 -45z"/>
    <path class="fil0" d="M1702 1168l43 -22 0 21 -43 22 0 -21zm130 -67l42 -21c6,4 12,8 19,11l-45 23c-6,-4 -11,-8 -16,-12zm122 -63l45 -23c7,3 15,4 23,4l10 0 -59 30c-6,-3 -12,-7 -18,-12zm216 -111l99 -51c-1,2 -2,5 -2,7l-4 11 -50 13 0 18 -43 22 0 -21zm164 -84l74 -38 15 -7 16 -6 16 -4 17 -3 17 -1 -173 89c5,-11 11,-21 18,-30z"/>
    <path class="fil0" d="M1702 1192l43 -22 0 9 -43 22 0 -9zm149 -76l46 -23c3,1 6,3 9,4l-47 24c-3,-2 -5,-3 -8,-5zm124 -64l63 -32 17 0 -70 36c-3,-1 -6,-3 -9,-4zm196 -100l43 -22 0 9 -43 22 0 -9zm144 -74l104 -53c-13,7 -25,16 -35,27l-73 37c1,-4 3,-8 5,-11z"/>
    <path class="fil0" d="M1702 1168l43 -22 0 21 -43 22 0 -21zm130 -67l42 -21c6,4 12,8 19,11l-45 23c-6,-4 -11,-8 -16,-12zm122 -63l45 -23c7,3 15,4 23,4l10 0 -59 30c-6,-3 -12,-7 -18,-12zm216 -111l99 -51c-1,2 -2,5 -2,7l-4 11 -50 13 0 18 -43 22 0 -21zm164 -84l74 -38 15 -7 16 -6 16 -4 17 -3 17 -1 -173 89c5,-11 11,-21 18,-30z"/>
    <path class="fil0" d="M1585 1063l83 -43 58 0 -83 43 -58 0zm379 -196l20 -10c12,-5 25,-7 38,-7l34 0 -134 69c3,-9 8,-18 14,-26 7,-10 16,-18 27,-25zm74 -38l43 -22c7,6 14,12 21,19l-40 21c-7,-7 -15,-13 -24,-18zm266 -137l27 -14 27 16 -117 60 63 -63zm107 -56l59 0 -68 35 9 -35z"/>
    <path class="fil0" d="M1698 1063l82 -42c6,1 12,2 18,4l-96 49 0 -11 -4 0zm218 -112l51 -26c-3,5 -5,11 -7,17l-44 23c0,-4 0,-9 0,-13zm114 -59l88 -45c2,3 4,7 6,10l-69 35 -26 0zm185 -95l91 -47 -27 28 -57 29 -6 -10zm125 -64l105 -54 -4 15 -89 46 -12 -7z"/>
    <path class="fil0" d="M1641 1063l83 -43 44 0c12,0 24,2 35,6l-101 52 0 -15 -61 0zm281 -145l132 -68 9 0 -3 -3 40 -21c10,10 18,22 25,34l0 0 -62 32 -42 0c-20,0 -39,10 -51,26 -6,8 -10,18 -12,28l-43 22c-2,-17 0,-34 6,-50zm319 -165l115 -59 18 11c7,-3 14,-6 20,-9l6 -25 25 -13 -14 55 -58 30 -26 -16 -60 60 -46 24 -14 -24 34 -34z"/>
    <path class="fil0" d="M1702 1098l43 -22 0 3 -43 22 0 -3zm68 -35l53 -27 3 2 -50 26c-2,0 -4,0 -6,0zm149 -77l39 -20 1 3 -39 20 -1 -3zm183 -94l32 -17 2 3 -27 14 -7 0zm129 -66l38 -20 2 3 -38 20 -2 -3zm142 -73l11 -5 -10 5 0 0z"/>
    <path class="fil0" d="M1338 1063l82 -43 46 0 -82 43 -46 0zm328 -171l82 -43 20 0c18,0 35,-8 47,-21 15,-17 33,-31 53,-42l2 -1 9 -4 9 -4 9 -3 10 -3 10 -2 10 -2 10 -1 10 -1 10 0 -246 128 -46 0z"/>
    <path class="fil0" d="M1358 1063l82 -43 15 0 -82 43 -15 0zm328 -171l82 -43c2,0 5,0 7,0 2,0 4,-1 7,-1 2,0 4,-1 6,-2 2,-1 4,-1 6,-2l1 -1 -94 49 -16 0z"/>
    <path class="fil0" d="M1335 1063l82 -43 23 0 -82 43 -23 0zm328 -171l82 -43 23 0 -82 43 -23 0z"/>
    <path class="fil0" d="M1568 1063l83 -43 112 0 -83 43 -112 0zm461 -239l44 -23c15,11 28,24 39,38l-105 54c-10,2 -19,7 -27,14l-63 33c3,-17 9,-34 20,-48 20,-27 52,-43 85,-43l42 0c-10,-10 -22,-19 -35,-25zm293 -152l53 32 -45 23 -2 -1 -4 4 -115 59 -2 -3 114 -114z"/>
    <path class="fil0" d="M1702 1101l43 -22 0 2 -43 22 0 -2zm74 -38l50 -26 2 1 -49 25 -3 0zm145 -74l39 -20 0 2 -39 20 -1 -2zm189 -97l27 -14 1 2 -24 12 -4 0zm124 -64l38 -20 1 2 -38 20 -1 -2z"/>
    <path class="fil0" d="M1680 1063l83 -43 4 0 -83 43 -4 0zm237 -122l63 -33c-2,1 -3,3 -4,4l-59 31 0 -2zm90 -47l105 -54 1 1 -100 52c-2,0 -4,1 -6,1zm202 -104l115 -59 -4 4 -110 57 -1 -2zm121 -62l45 -23 0 0 0 0 0 0 0 0 0 0 0 0 0 0 0 0 0 0 0 0 0 0 0 0 0 0 0 0 0 0 0 0 0 0 0 0 0 0 0 0 0 0 0 0 0 0 0 0 0 0 0 0 0 0 0 0 0 0 0 0 0 0 0 0 0 0 0 0 0 0 0 0 0 0 0 0 0 0 0 0 0 0 0 0 1 0 0 0 0 0 0 0 0 0 0 0 0 0 0 0 0 0 0 0 0 0 0 0 0 0 0 0 0 0 0 0 0 0 0 0 0 0 0 0 0 0 -63 33 -2 -1z"/>
    <path class="fil0" d="M1702 1145l43 -22 0 115 -43 22 0 -115zm115 -59l40 -20c27,26 64,40 101,40 40,0 78,-16 106,-43l-42 0c-32,0 -63,-15 -83,-40l39 -20c12,11 27,17 43,17l122 0 -12 21 -205 104c-42,-7 -81,-28 -110,-60zm354 -182l112 -58 -1 2c-6,12 -11,24 -15,36l-4 11 -50 13 0 91 -43 22 0 -117zm231 -119l-15 9c-5,3 -10,6 -14,10l-13 11c-4,4 -8,8 -12,12l-11 13c-3,5 -7,9 -10,14l-8 15c-3,5 -5,10 -7,16l-6 17c-2,6 -3,11 -4,17l-3 18c-1,6 -1,12 -1,18l1 -18c1,-6 1,-12 3,-18l4 -17c2,-6 4,-11 6,-17l7 -16c3,-5 5,-10 8,-15l10 -14c3,-5 7,-9 11,-13l12 -12c4,-4 9,-8 13,-11l14 -10c5,-3 10,-6 15,-9z"/>
    <path class="fil0" d="M1676 1063l83 -43 9 0c20,0 39,6 55,16l-53 27 -3 0 -23 0 0 13 -43 22 0 -35 -26 0zm241 -124l71 -37c-7,4 -12,9 -17,16 -11,14 -15,32 -12,48l-39 20c-4,-15 -5,-32 -3,-48zm81 -42l113 -58c5,7 10,14 15,22l9 16 -32 17 -81 0c-8,0 -17,2 -24,5zm211 -109l120 -62 -67 67 8 13 -38 20 -22 -38z"/>
    <path class="fil0" d="M1702 1575l43 -21 0 43c0,7 1,13 3,19l-38 19c-5,-12 -7,-25 -7,-38l0 -22zm43 -21l47 -23c5,2 11,2 17,2l105 0 -86 43 -20 0c-24,0 -46,-8 -64,-22z"/>
    <path class="fil0" d="M2014 1703l87 -43 107 0 -87 43 -107 0zm260 -128l87 -43 45 0 0 0c32,0 58,-23 63,-53l22 -11 -2 17 -5 16 -8 15 -10 13 -13 10 -14 8 -57 28 -108 0z"/>
    <line class="fil0" x1="2406" y1="1533" x2="2406" y2= "1533" />
    <path class="fil0" d="M2164 1703l87 -43 5 0 -87 43 -5 0zm268 -131l38 -19 -7 5 -7 4 -8 4c-5,2 -11,4 -16,6z"/>
    <path class="fil0" d="M1706 1626l39 -20c2,13 8,25 16,34l-39 19c-7,-10 -13,-22 -17,-34zm101 -50l86 -43 85 0 -86 43 -84 0 -1 0z"/>
    <path class="fil0" d="M1702 1554l68 -34c6,5 13,8 21,10l-47 23 0 0 0 0 -43 21 0 -21z"/>
    <path class="fil0" d="M1702 1596l43 -21 0 22c0,3 0,6 1,9l-39 20c-3,-9 -4,-19 -4,-29l0 -1zm62 -31l65 -33 64 0 -86 43c-15,0 -30,-4 -43,-10z"/>
    <path class="fil0" d="M2318 1703l88 -43c4,0 9,0 13,-1 4,-1 8,-2 12,-4l-98 48 -14 0z"/>
    <path class="fil0" d="M1622 1063l83 -43 64 0c6,0 12,0 17,1l-83 43 0 -2 -81 0zm307 -159l106 -55 29 0c-3,-3 -7,-6 -11,-9l41 -21c9,9 18,19 25,31l-82 42 -15 0c-20,0 -39,10 -51,26 -3,4 -5,8 -7,12l-48 25c0,-17 5,-35 13,-50zm334 -172l62 -32 -90 91 -19 10 -8 -13 55 -55z"/>
    <path class="fil0" d="M1702 1065l83 -43c23,4 44,15 60,32l-41 21c-11,-8 -23,-12 -37,-12l-23 0 0 42 -43 22 0 -63zm213 -110l48 -25c-9,20 -7,43 4,61l-38 20c-10,-17 -15,-36 -15,-56zm121 -62l82 -42c2,3 4,7 7,10l19 32 -108 0zm179 -92l19 -10 29 49 -31 16c2,-5 4,-10 6,-15l-24 -40zm-2 65l-42 22 0 -11 42 -11z"/>
    <path class="fil0" d="M1384 1063l82 -43 302 0c12,0 24,2 35,6l-101 52 0 -15 -319 0zm328 -171l246 -128 13 0 13 1 13 2 12 3 12 4 12 4 11 5 11 6 11 7 10 7 10 8 9 9 9 9 8 10 7 10 7 11 -62 32 -41 0c-20,0 -39,10 -51,26 -6,8 -10,18 -12,28l-43 22c-3,-26 4,-54 21,-76 20,-27 52,-43 85,-43l42 0c-28,-27 -66,-43 -106,-43 -42,0 -83,18 -111,50 -20,22 -49,35 -79,35l-56 0z"/>
    <path class="fil0" d="M1702 1171l43 -22 0 13 -43 22 0 -13zm132 -68l42 -22c4,2 8,5 12,7l-44 23c-3,-2 -7,-5 -10,-8zm122 -63l46 -23c6,2 12,3 19,3l-54 28c-4,-2 -7,-5 -11,-7zm215 -110l43 -22 0 13 -43 22 0 -13z"/>
    <path class="fil0" d="M1702 1117l43 -22 0 15 -43 22 0 -15zm93 -48l43 -22c3,3 6,6 9,9l1 1 -40 20c-4,-3 -9,-6 -13,-8zm131 -67l38 -20c2,4 4,8 7,12l-38 20c-2,-4 -5,-8 -7,-12zm213 -110l4 -2 1 2 -5 0zm32 -17l60 -15 -60 31 0 -15z"/>
    <path class="fil0" d="M1702 1392l43 -22 0 67 -43 21 0 -67zm513 -259l20 -10 45 45 -20 10 -45 -45z"/>
    <path class="fil0" d="M1702 1127l43 -22 0 30 -43 22 0 -30zm102 -53l41 -21 1 2c6,7 12,13 19,18l-41 21c-4,-3 -7,-7 -10,-11 -3,-3 -6,-6 -10,-9zm125 -64l38 -20c1,1 2,3 3,4 5,7 11,12 18,16l-42 21c-4,-4 -7,-8 -10,-12 -2,-3 -5,-7 -7,-10zm241 -124l42 -22 17 -4 2 -6 31 -16 -2 5 -2 5 -2 5 -2 5 -2 5 -2 5 -2 5 -2 5 -76 39 0 -31z"/>
    <path class="fil0" d="M1702 1078l101 -52c14,5 26,12 37,22l-42 22c-9,-5 -19,-7 -30,-7l-23 0 0 34 -43 22 0 -41zm214 -110l43 -22c-2,13 0,26 6,38l-38 19c-6,-11 -9,-24 -10,-36zm147 -76l62 -32 19 32 -81 0z"/>
    <path class="fil0" d="M1702 1459l43 -21 0 31c0,4 0,7 1,11l-44 22 0 -42z"/>
    <path class="fil0" d="M1702 1358l43 -22 0 34 -43 22 0 -34zm526 -266l35 -18 -29 49 -20 10 -7 -7 20 -34z"/>
    <path class="fil0" d="M1702 1311l43 -22 0 47 -43 22 0 -47zm516 -262l29 -15 2 5 2 5 2 5 2 5 2 5 2 5 2 5 2 5 -35 18 11 -19c-3,-7 -6,-14 -9,-20l-13 -3z"/>
    <path class="fil0" d="M1609 1063l83 -43 41 0 -83 43 -41 0zm326 -169l87 -45 42 0 -143 74c3,-10 8,-20 14,-29z"/>
    <polygon class="fil0" points="1702,509 1745,487 1745,551 1702,573 "/>
    <path class="fil0" d="M1704 471l71 -38 -1 1c-3,2 -7,5 -9,8 -3,3 -6,6 -8,9 -2,3 -4,7 -6,11 -2,4 -3,8 -4,12 -1,4 -1,8 -1,13l-43 23 0 -23c0,-5 0,-11 1,-16z"/>
    <path class="fil0" d="M1650 1063l83 -43 35 0c13,0 25,2 37,6l-102 53 0 -16 -53 0zm271 -140l101 -52 85 0 -41 21 -44 0c-20,0 -39,10 -51,26 -7,9 -11,19 -12,29l-42 22c-2,-15 0,-31 4,-46z"/>
    <path class="fil0" d="M1702 1549l65 -32c1,1 2,2 4,3l-68 34 0 -5z"/>
    <path class="fil0" d="M1702 1144l43 -22 0 126 -43 22 0 -126zm114 -58l40 -20c28,26 64,41 102,41 40,0 78,-16 106,-43l-42 0c-32,0 -63,-15 -84,-40l39 -20c12,11 28,18 44,18l122 0 -19 32 -2 3 -182 93c-48,-4 -93,-26 -126,-62zm355 -182l21 -11 0 128 -21 11 0 -128z"/>
    <path class="fil0" d="M1702 1246l43 -22 0 22 -43 22 0 -22zm205 -104l73 -37c32,-5 61,-19 84,-41l-3 0 84 -43 -19 32 -187 95c-11,-1 -22,-3 -32,-6z"/>
    <polygon class="fil0" points="1702,1573 1789,1529 1792,1530 1745,1554 1745,1553 1745,1554 1702,1575 "/>
    <path class="fil0" d="M1702 1133l43 -22 0 51 -43 22 0 -51zm106 -55l40 -20c12,13 25,23 40,31l-44 23c-11,-8 -21,-17 -30,-27 -2,-2 -4,-4 -6,-6zm124 -64l38 -20c1,2 3,4 5,6 2,2 4,3 5,5 2,2 4,3 6,4 2,1 4,3 6,4 2,1 4,2 7,3 2,1 5,2 7,2 2,1 5,1 7,1 2,0 5,0 7,0l-54 28c-12,-7 -23,-16 -31,-28 -1,-2 -3,-4 -4,-6z"/>
    <path class="fil0" d="M1450 1063l82 -43 15 0 -82 43 -15 0zm330 -172l66 -34 -8 8 -9 7 -9 6 -8 4c-10,5 -21,8 -32,9z"/>
    <path class="fil0" d="M1702 1268l43 -22 0 34 -43 22 0 -34zm237 -121l187 -95 -7 11 -7 10 -8 10 -9 9 -9 9 -10 8 -10 7 -11 7 -11 6c-26,13 -56,20 -86,20 -6,0 -13,0 -19,-1z"/>
    <path class="fil0" d="M1702 1575l43 -21 0 21 -43 21 0 -21zm43 -21l47 -23c5,2 11,2 17,2l21 0 -65 33c-7,-3 -13,-7 -19,-12z"/>
    <path class="fil0" d="M1702 1257l43 -22 0 21 -43 22 0 -21zm220 -112l35 -18 12 0 12 -1 11 -2 11 -3 11 -3 11 -4 10 -5 -78 40c-12,0 -24,-1 -35,-3z"/>
    <path class="fil0" d="M1689 1063l83 -43c29,1 56,14 75,35l2 2 -40 20c-11,-10 -26,-15 -41,-15l-23 0 0 48 -43 22 0 -70 -13 0zm227 -117l55 -28c-2,3 -4,6 -6,9 -2,3 -3,6 -4,10 -1,3 -2,7 -2,10 -1,3 -1,7 -1,10 0,3 0,7 1,10 1,3 1,7 2,10 1,3 2,6 4,10 2,3 3,6 6,9l-38 20c-13,-21 -19,-45 -17,-68z"/>
    <path class="fil0" d="M1702 1184l43 -22 0 62 -43 22 0 -62zm142 -73l44 -23c21,11 45,17 69,17 7,0 15,-1 22,-2l-73 37c-22,-6 -43,-16 -62,-30zm123 -63l54 -28 122 0 -84 43 -38 0c-19,0 -38,-5 -54,-15z"/>
    <polygon class="fil0" points="1702,1278 1745,1256 1745,1438 1702,1459 "/>
    <path class="fil0" d="M1702 1130l43 -22 0 107 -43 22 0 -107zm104 -54l40 -21c4,4 7,8 11,11 4,4 8,7 12,10 4,3 9,6 13,9 5,3 9,5 14,7 5,2 10,4 15,6 5,2 10,3 15,4 5,1 10,2 16,3 5,1 11,1 16,1l-63 32c-31,-11 -58,-29 -80,-54 -3,-3 -5,-5 -8,-8z"/>
    <path class="fil0" d="M1702 1320l43 -22 0 170c0,17 7,33 18,45l-61 30 0 -224z"/>
    <polygon class="fil0" points="1702,1454 1745,1433 1745,1460 1702,1482 "/>
    <path class="fil0" d="M1702 1482l43 -21 0 8c0,23 12,42 29,54l-72 36 0 -77z"/>
    <path class="fil0" d="M1702 1489l43 -21 0 1c0,17 7,33 18,44l-61 30 0 -54z"/>
    <path class="fil0" d="M1702 1528l52 -26c2,3 4,5 6,8l-58 29 0 -11z"/>
    <path class="fil0" d="M1712 442l64 -34 -14 8 -13 10 -10 13 -8 15 -5 16 -2 17 -21 11 0 -11c0,-16 4,-31 10,-45z"/>
    <polygon class="fil0" points="1702,1448 1745,1426 1745,1433 1702,1454 "/>
    <path class="fil0" d="M1702 1236l43 -22 0 19 -43 22 0 -19zm193 -98l63 -32c5,0 10,0 15,-1 5,0 10,-1 15,-2 5,-1 10,-2 14,-4 5,-1 9,-3 14,-5 4,-2 9,-4 13,-6l-110 56c-8,-2 -16,-4 -24,-7z"/>
    <path class="fil0" d="M1676 1063l83 -43 10 0 4 0 -83 43 -14 0zm242 -125l75 -39c-2,1 -4,2 -5,3 -2,1 -4,3 -6,4 -2,2 -4,3 -5,5 -2,2 -3,4 -5,6l-55 28c0,-3 1,-5 1,-8z"/>
    <path class="fil0" d="M1702 1136l43 -22 0 122 -43 22 0 -122zm109 -56l20 -10 12 13 14 11 15 10 16 8 17 7 17 5 18 3 19 1 -35 18c-41,-8 -79,-29 -108,-61 -1,-1 -3,-3 -4,-4z"/>
    <path class="fil0" d="M1702 1490l43 -21c0,2 0,4 0,6l-43 22 0 -6z"/>
    <path class="fil0" d="M1845 1703l86 -43 26 0 -86 43 -26 0zm259 -128l86 -43 27 0 -86 43 -27 0z"/>
    <path class="fil0" d="M1739 1677l44 -22c2,1 5,2 7,3l-46 23c-2,-1 -3,-3 -5,-4zm204 -101l86 -43 12 0 -86 43 -12 0z"/>
    <path class="fil0" d="M2406 1703l21 -2c7,-1 14,-4 20,-6l-20 6c-7,1 -14,2 -21,2z"/>
    <path class="fil0" d="M1702 1558l72 -36c9,6 20,10 31,10l-53 26c-3,-2 -5,-3 -8,-5l0 9 -43 21 0 -26z"/>
    <path class="fil0" d="M1429 1063l82 -43 21 0 -82 43 -21 0zm329 -171l125 -65c-5,3 -9,6 -13,9 -4,3 -8,6 -12,10 -4,4 -8,7 -11,11l-66 34c-4,0 -8,1 -13,1l-10 0z"/>
    <polygon class="fil0" points="1702,1235 1745,1213 1745,1235 1702,1256 "/>
    <path class="fil0" d="M1584 1063l83 -43 25 0 -83 43 -25 0zm389 -201l2 -1 11 -5 12 -4 12 -2 12 -1 -87 45 2 -2c9,-13 22,-23 35,-30z"/>
    <path class="fil0" d="M1685 1063l83 -43 11 1 11 2 11 3 10 4 10 5 9 6 9 7 8 8 -40 21c-11,-8 -25,-13 -39,-13l-23 0 0 45 -43 22 0 -67 -17 0z"/>
    <path class="fil0" d="M1729 1667l40 -20c8,6 17,11 27,13l-49 24c-7,-5 -13,-10 -19,-17zm185 -92l86 -43 53 0 -86 43 -53 0z"/>
    <path class="fil0" d="M1773 1697l73 -36 85 0 -86 43 -36 0c-13,0 -25,-2 -36,-6zm246 -122l86 -43 86 0 -86 43 -86 0z"/>
    <path class="fil0" d="M1762 1692l64 -32 85 0 -86 43 -15 0c-17,0 -33,-4 -47,-11zm236 -117l86 -43 86 0 -86 43 -85 0z"/>
    <path class="fil0" d="M1407 1063l82 -43 11 0 -82 43 -11 0zm329 -171l95 -49 -6 6 -7 6 -7 5 -63 33 -12 0z"/>
    <path class="fil0" d="M1383 1063l82 -43 24 0 -82 43 -24 0zm328 -171l175 -91 -16 8 -15 10 -14 11 -12 13 -95 49 -24 0z"/>
    <polygon class="fil0" points="1702,1443 1745,1421 1745,1426 1702,1448 "/>
    <path class="fil0" d="M1629 1063l83 -43 21 0 -83 43 -20 0zm297 -153l58 -30 9 -4 9 -3 10 -2 10 -1 -101 52c1,-5 3,-9 5,-13z"/>
    <polygon class="fil0" points="1702,1256 1745,1235 1745,1277 1702,1299 "/>
    <path class="fil0" d="M1702 1075l65 -34 9 0 9 1 9 2 8 3 8 4 7 5 7 6 6 6 -20 10c-11,-11 -27,-17 -43,-17l-23 0 0 51 -43 22 0 -60z"/>
    <polygon class="fil0" points="1702,1467 1745,1445 1745,1448 1702,1469 "/>
    <polygon class="fil0" points="1702,1469 1745,1448 1745,1454 1702,1475 "/>
    <polygon class="fil0" points="1702,1475 1745,1454 1745,1468 1702,1489 "/>
    <polygon class="fil0" points="1702,1085 1745,1063 1745,1469 1702,1490 "/>
    <path class="fil0" d="M1702 583l21 -11 0 320 -426 0c-35,0 -64,29 -64,64l0 0c0,35 29,64 64,64l426 0 0 448 -21 11 0 -416 -405 0c-59,0 -107,-48 -107,-107 0,-59 48,-107 107,-107l405 0 0 -266z"/>
    <path class="fil0" d="M1704 1616l41 -20 0 1c0,13 4,26 11,36l-38 19c-6,-11 -11,-23 -14,-35zm86 -43l82 -41 85 0 -86 43 -62 0c-7,0 -13,-1 -19,-2z"/>
    <polygon class="fil0" points="1702,498 1724,487 1724,572 1702,583 "/>
    <path class="fil0" d="M1702 850l-82 43 -323 0c-35,0 -64,29 -64,64l0 0c0,35 29,64 64,64l78 0 -82 43c-57,-2 -102,-49 -102,-107 0,-59 48,-107 107,-107l405 0z"/>
    <path class="fil0" d="M1192 940l71 -37 -1 1c-3,2 -7,5 -9,8 -3,3 -6,6 -8,9 -2,3 -4,7 -6,11 -2,4 -3,8 -4,12 -1,4 -1,8 -1,13l-40 21c-1,-7 -2,-14 -2,-21 0,-6 0,-11 1,-17z"/>
    <path class="fil0" d="M1196 988l39 -20c2,10 6,19 12,26l-38 20c-5,-8 -9,-17 -12,-26z"/>
    <path class="fil0" d="M1244 1048l54 -28 471 0 -83 43 -388 0c-20,0 -38,-5 -54,-15z"/>
    <path class="fil0" d="M1201 911l63 -33 -14 8 -13 10 -10 13 -8 15 -5 16 -2 17 -21 11c0,-4 -1,-7 -1,-11 0,-16 4,-32 10,-45z"/>
    <polygon class="fil0" points="1195,986 1234,965 1235,968 1196,988 "/>
    <path class="fil0" d="M1266 1058l32 -17 470 0 -65 34 0 -12 -405 0c-11,0 -22,-2 -32,-5z"/>
    <path class="fil0" d="M1208 1014l38 -20c2,3 5,6 8,9l-39 20c-2,-3 -5,-6 -7,-9z"/>
    <path class="fil0" d="M1193 978l40 -21c0,4 0,9 1,13 1,4 2,8 4,12 2,4 4,7 6,11 2,3 5,7 8,9 3,3 6,6 9,8 3,2 7,4 11,6 4,2 8,3 12,4 4,1 8,1 13,1l-54 28c-26,-15 -45,-41 -51,-71z"/>
    <path class="fil0" d="M1723 1660l39 -19c3,3 6,6 9,8l-41 20c-3,-3 -5,-6 -8,-9zm170 -84l86 -43 26 0 -86 43 -26 0z"/>
    <path class="fil0" d="M1702 1584l43 -21 0 2 -43 21 0 -2zm50 -25l53 -26c1,0 2,0 4,0l1 0 -55 28 -2 -1z"/>
    <path class="fil0" d="M1702 1596l43 -21 0 21 -41 20c-1,-6 -2,-13 -2,-20l0 0zm62 -31l65 -33 42 0 -82 41c-9,-2 -18,-5 -26,-8z"/>
    <path class="fil0" d="M1702 1543l61 -30c4,4 9,8 14,11l-75 37 0 -18z"/>
    <path class="fil0" d="M1702 1586l43 -21 0 32c0,35 29,64 64,64l336 0 -87 43 -249 0c-59,0 -107,-48 -107,-107l0 -11zm52 -26l54 -27 597 0 -87 43 -510 0c-20,0 -39,-6 -54,-15z"/>
    <path class="fil0" d="M2058 1703l87 -43 14 0 -87 43 -14 0zm261 -128l87 -43c4,0 9,0 13,-1 4,-1 8,-2 12,-4l-97 48 -15 0z"/>
    <polygon class="fil0" points="1702,1562 1777,1524 1778,1525 1702,1563 "/>
    <path class="fil0" d="M2101 1703l87 -43 19 0 -87 43 -19 0zm261 -128l44 -21 17 -2 16 -5 -57 28 -19 0z"/>
    <path class="fil0" d="M1702 1497l43 -22c1,10 4,19 9,27l-52 26 0 -32z"/>
    <path class="fil0" d="M1703 1607l42 -21 0 11c0,35 29,64 64,64l379 0 -87 43 -292 0c-55,0 -101,-42 -106,-96zm74 -37l32 -16 597 0 -44 21 -553 0c-11,0 -22,-2 -32,-5z"/>
    <path class="fil0" d="M1702 1490l43 -21c0,4 0,9 1,13 1,4 2,8 4,12 2,4 4,7 6,11 2,3 5,7 8,9 3,3 6,6 9,8 3,2 7,4 11,6 4,2 8,3 12,4 4,1 8,1 13,1l-54 27c-3,-2 -6,-4 -9,-6l0 11 -43 21 0 -96z"/>
    <path class="fil0" d="M1702 1479l21 -11 2 17 5 16 8 15 10 13 13 10 14 8 16 5 17 2 -32 16c-12,-4 -22,-10 -32,-17l0 32 -42 21c0,-3 0,-7 0,-10l0 -117z"/>
    <path class="fil0" d="M1702 1575l43 -21 0 43 -41 20c-1,-7 -2,-13 -2,-20l0 -22z"/>
    <line class="fil0" x1="1233" y1="956" x2="1233" y2= "956" />
    <path class="fil0" d="M1240 866l16 -8 -18 10c-6,4 -11,8 -16,13l-13 16c-4,6 -7,12 -10,18l-6 20c-1,7 -2,14 -2,21l2 -21c1,-7 4,-14 6,-20l10 -18c4,-6 8,-11 13,-16l16 -13 2 -1z"/>
    <path class="fil0" d="M1702 1479l21 -11 0 128 -21 10c0,-3 -1,-7 -1,-10l0 -117z"/>
    <path class="fil0" d="M1191 967l21 -11 0 9 1 8 2 8 3 8 4 7 4 7 5 7 5 6 -20 10c-14,-16 -24,-37 -26,-60z"/>
    <path class="fil0" d="M1704 1617l41 -20c0,4 0,9 1,13 1,4 2,8 4,12 2,4 4,7 6,11 2,3 5,7 8,9 3,3 6,6 9,8 3,2 7,4 11,6 4,2 8,3 12,4 4,1 8,1 13,1l-55 27c-25,-15 -44,-41 -50,-71z"/>
    <path class="fil0" d="M1754 1688l55 -27 597 0 -88 43 -509 0c-20,0 -39,-6 -55,-15z"/>
    <polygon class="fil0" points="2362,1703 2406,1682 2423,1680 2439,1675 2381,1703 "/>
    <path class="fil0" d="M1776 1698l33 -16 597 0 -44 21 -553 0c-11,0 -22,-2 -33,-5z"/>
    <path class="fil0" d="M1703 1607l21 -10 2 17 5 16 8 15 10 13 13 10 14 8 16 5 17 2 -33 16c-40,-13 -69,-48 -73,-91z"/>
    <path class="fil0" d="M1702 1597l2 21c1,7 4,14 6,20l10 18c4,6 8,11 13,16l16 13c6,4 12,7 18,10l20 6c7,1 14,2 21,2l-21 -2c-7,-1 -14,-4 -20,-6l-18 -10c-6,-4 -11,-8 -16,-13l-13 -16c-4,-6 -7,-12 -10,-18l-6 -20c-1,-7 -2,-14 -2,-21z"/>
    <path class="fil0" d="M1218 1027l20 -10 6 5 7 5 7 4 7 4 8 3 8 2 8 1 9 0 -32 17c-19,-6 -35,-17 -48,-31z"/>
    <path class="fil0" d="M1191 956l2 21c1,7 4,14 6,20l10 18c4,6 8,11 13,16l16 13c6,4 12,7 18,10l20 6c7,1 14,2 21,2l-21 -2c-7,-1 -14,-4 -20,-6l-18 -10c-6,-4 -11,-8 -16,-13l-13 -16c-4,-6 -7,-12 -10,-18l-6 -20c-1,-7 -2,-14 -2,-21z"/>
    <path class="fil0" d="M1751 397l17 -9 -18 10c-6,4 -11,8 -16,13l-13 16c-4,6 -7,12 -10,18l-6 20c-1,7 -2,14 -2,21l2 -21c1,-7 4,-14 6,-20l10 -18c4,-6 8,-11 13,-16l16 -13 1 -1z"/>
   </g>
   <g>
    <polygon class="fil0" points="2133,508 2214,465 2214,508 "/>
    <polygon class="fil0" points="2086,465 2214,465 2133,508 2086,508 "/>
   </g>
   <g>
    <polygon class="fil0" points="2005,508 2044,488 2044,508 "/>
    <polygon class="fil0" points="2001,488 2044,465 2044,508 2001,508 "/>
    <polygon class="fil0" points="2001,465 2044,465 2001,488 "/>
   </g>
   <g>
    <path class="fil0" d="M1835 1466l38 -19 0 1 12 0 14 -14 50 -25 18 18 -51 52c-8,8 -19,13 -30,13l-12 0c-17,0 -32,-10 -38,-24z"/>
    <path class="fil0" d="M1943 1402l-40 20 -18 -18 -12 0 0 33 -41 21c-1,-3 -1,-7 -1,-11l0 -43c0,-24 19,-43 43,-43l12 0c11,0 22,5 30,13l28 28z"/>
    <path class="fil0" d="M1849 1483l116 -58 1 1 -51 52c-8,8 -19,13 -30,13l-12 0c-9,0 -17,-3 -24,-7z"/>
    <path class="fil0" d="M1839 1379l33 -17 1 0 12 0c11,0 22,5 30,13l5 5 -91 46 0 -21c0,-10 3,-19 9,-26z"/>
    <path class="fil0" d="M1872 1362l-33 17c8,-10 20,-17 33,-17z"/>
    <path class="fil0" d="M1869 1362l-27 14c7,-8 16,-13 27,-14z"/>
    <path class="fil0" d="M1842 1376l27 -14c1,0 3,0 4,0l12 0c11,0 22,5 30,13l34 34 -50 25 7 -7 -21 -21 -12 0 0 42 -38 19c-3,-6 -4,-12 -4,-18l0 -43c0,-11 4,-21 11,-29z"/>
    <path class="fil0" d="M1831 1456l42 -21 0 12 12 0 21 -21 -5 -5 40 -20 24 24 -116 58c-9,-6 -16,-16 -18,-27z"/>
    <path class="fil0" d="M1841 1476l117 -59 3 3 -117 59c-1,-1 -2,-2 -3,-3z"/>
    <path class="fil0" d="M1830 1432l43 -21 0 4 -43 21 0 -4zm55 -28l40 -20 3 3 -40 20 -3 -3z"/>
    <path class="fil0" d="M1840 1475l117 -59 10 10 -51 52c-1,1 -3,2 -4,4l-15 7c-4,1 -7,2 -11,2l-12 0c-13,0 -25,-6 -33,-15z"/>
    <path class="fil0" d="M1832 1393l61 -31c8,2 16,6 23,12l29 29 -40 20 -19 -19 -12 0 0 35 -41 20c-1,-4 -2,-8 -2,-13l0 -43c0,-4 1,-8 1,-11z"/>
    <path class="fil0" d="M1873 1490l61 -30 -18 18c-8,8 -19,13 -30,13l-12 0 0 0z"/>
    <path class="fil0" d="M1847 1481l117 -58 3 3 -34 34 -61 30c-9,0 -18,-3 -25,-9z"/>
    <path class="fil0" d="M1893 1363l-61 31c5,-18 22,-31 41,-31l12 0c3,0 5,0 8,1z"/>
    <path class="fil0" d="M1832 1394l63 -32c8,2 15,6 21,12l13 13 -40 20 -3 -3 -12 0 0 11 -43 21 0 -33c0,-3 0,-7 1,-10z"/>
    <path class="fil0" d="M1844 1478l117 -59 3 3 -117 58c-1,-1 -2,-2 -4,-3z"/>
    <path class="fil0" d="M1868 1490l70 -35 -5 5 -61 30c-1,0 -3,0 -4,0z"/>
    <path class="fil0" d="M1873 1490l61 -30 -18 18c-8,8 -19,13 -30,13l-12 0 0 0z"/>
    <path class="fil0" d="M1894 1363l-63 32c5,-19 21,-33 41,-33l12 0c3,0 6,0 9,1z"/>
    <path class="fil0" d="M1885 1447l-12 0 0 -43 12 0 21 21 -21 21zm72 -31l-117 59c-6,-7 -10,-17 -10,-27l0 -43c0,-24 19,-43 43,-43l12 0c11,0 22,5 30,13l41 42z"/>
    <path class="fil0" d="M1834 1388l52 -26 4 0 4 1 4 1 4 1 4 2 4 2 3 2 3 3 -85 43 0 -13c0,-6 1,-12 3,-17z"/>
    <path class="fil0" d="M1885 1447l-12 0 0 -43 12 0 21 21 -21 21zm-55 -30l85 -43 51 52 -116 58c-12,-7 -21,-21 -21,-37l0 -30z"/>
    <path class="fil0" d="M1885 1447l-12 0 0 -43 12 0 21 21 -21 21zm-55 -23l70 -35 36 37 -97 49c-6,-7 -10,-17 -10,-27l0 -23z"/>
    <path class="fil0" d="M1833 1463l40 -20 0 4 12 0 -48 24c-2,-3 -3,-5 -4,-8z"/>
    <path class="fil0" d="M1839 1379l34 -17 12 0 -52 26c1,-3 3,-6 5,-9z"/>
    <polygon class="fil0" points="1830,1426 1873,1405 1873,1411 1830,1432 "/>
    <path class="fil0" d="M1851 1484l116 -58 -51 52 -24 12c-2,0 -4,0 -6,0l-12 0c-8,0 -15,-2 -22,-6z"/>
    <path class="fil0" d="M1851 1368l5 -2 8 -2 9 -1 -34 17c3,-5 8,-8 13,-11z"/>
    <polygon class="fil0" points="1830,1402 1865,1385 1869,1384 1873,1383 1830,1405 1830,1405 "/>
    <polygon class="fil0" points="1830,1405 1873,1383 1886,1383 1830,1411 "/>
    <polygon class="fil0" points="1830,1411 1886,1383 1888,1383 1890,1384 1892,1384 1894,1385 1896,1386 1897,1387 1899,1388 1900,1389 1830,1425 "/>
    <path class="fil0" d="M1891 1490l24 -12 -3 3 -3 2 -4 2 -2 1c-4,2 -8,3 -12,4z"/>
    <path class="fil0" d="M1840 1474l97 -49 -36 37 -46 23c-5,-3 -10,-7 -14,-11z"/>
    <polygon class="fil0" points="1854,1486 1900,1462 1899,1464 1897,1465 1896,1466 1855,1486 "/>
    <path class="fil0" d="M1830 1432l43 -21 0 32 -40 20c-2,-5 -3,-10 -3,-16l0 -15z"/>
   </g>
   <g>
    <path class="fil0" d="M2167 1385l-39 20 -41 0 0 21 -43 21 0 -42c0,-24 19,-43 43,-43l43 0c16,0 31,9 38,23z"/>
    <path class="fil0" d="M2084 1490l87 -43 0 1c0,24 -19,43 -43,43l-43 0 -2 0z"/>
    <path class="fil0" d="M2075 1488l97 -48 0 6 -87 43c-3,0 -6,-1 -9,-1z"/>
    <path class="fil0" d="M2069 1486l102 -51 0 5 -97 48c-2,-1 -4,-1 -6,-2z"/>
    <path class="fil0" d="M2127 1490l37 -18c-8,11 -21,18 -35,18l-2 0z"/>
    <path class="fil0" d="M2044 1447l43 -21 0 22 19 0 -53 26c-6,-7 -9,-16 -9,-26l0 -1zm84 -42l39 -19c3,6 5,12 5,19l0 10 -43 21 0 -31 -1 0z"/>
    <path class="fil0" d="M2050 1382l41 -20 38 0c17,0 31,9 38,23l-39 19 -42 0 0 21 -43 21 0 -42c0,-8 2,-16 6,-22z"/>
    <path class="fil0" d="M2110 1490l60 -30c0,1 -1,2 -1,3l-54 27 -5 0z"/>
    <path class="fil0" d="M2091 1362l-41 20c8,-12 21,-20 36,-20l4 0z"/>
    <path class="fil0" d="M2075 1363l-16 8c5,-4 10,-6 16,-8z"/>
    <path class="fil0" d="M2048 1466l38 -19 0 0 43 0 0 -21 43 -21 0 43 -86 43c-16,0 -31,-10 -38,-24z"/>
    <path class="fil0" d="M2144 1365l-101 50 0 -11c0,-24 19,-43 43,-43l43 0c5,0 11,1 15,3z"/>
    <path class="fil0" d="M2044 1405l85 -43 9 1 8 2 7 4 6 5 5 6 4 7 2 8 1 9 -43 21 0 -21 -43 0 0 42 -38 19c-3,-6 -4,-12 -4,-19l0 -43 0 0z"/>
    <path class="fil0" d="M2045 1457l41 -21 0 11 43 0 0 -32 21 -11 0 43 -80 40c-13,-5 -22,-16 -26,-30z"/>
    <path class="fil0" d="M2052 1379l34 -17 43 0 -85 43c0,-10 3,-18 9,-26z"/>
    <path class="fil0" d="M2044 1426l85 -43 4 0 4 1 4 2 3 3 3 3 2 4 1 4 0 4 -21 11 0 -11 -43 0 0 32 -41 21c-1,-3 -1,-6 -1,-10l0 -21z"/>
    <path class="fil0" d="M2065 1368l5 -2 8 -2 9 -1 -34 17c3,-5 8,-8 13,-11z"/>
    <polygon class="fil0" points="2044,1402 2078,1385 2082,1384 2086,1383 2044,1405 "/>
    <polygon class="fil0" points="2044,1405 2086,1383 2129,1383 2044,1426 2044,1405 "/>
    <path class="fil0" d="M2114 1490l54 -27c-1,3 -3,6 -5,9l-37 18 -13 0z"/>
    <path class="fil0" d="M2086 1490l86 -43 -1 9 -2 8 -4 7 -5 6 -6 5 -7 4c-5,2 -11,3 -17,3l-43 0 -1 0z"/>
    <path class="fil0" d="M2044 1447l43 -21 0 21 43 0 -68 34c-10,-8 -17,-20 -17,-34l0 0z"/>
    <path class="fil0" d="M2070 1487l80 -40 0 4 -1 4 -2 4 -3 3 -3 3 -4 2 -46 23 -5 0c-6,0 -11,-1 -16,-3z"/>
    <polygon class="fil0" points="2044,1426 2086,1405 2086,1426 2044,1447 "/>
   </g>
   <g>
    <polygon class="fil0" points="2282,1392 2342,1362 2351,1363 2359,1365 2366,1369 2372,1374 2377,1381 2381,1388 2384,1396 2385,1405 2342,1426 2342,1405 2329,1405 2308,1426 2319,1437 2279,1457 2248,1426 "/>
    <path class="fil0" d="M2279 1457l40 -20 10 10 13 0 0 -22 43 -21 0 43 -76 37c-4,-2 -7,-4 -10,-7l-20 -21z"/>
    <polygon class="fil0" points="2294,1379 2329,1362 2342,1362 2282,1392 "/>
    <path class="fil0" d="M2309 1367l4 -2 4 -1 4 -1 4 -1 4 0 -35 17 5 -5c3,-3 6,-5 10,-7z"/>
    <path class="fil0" d="M2309 1485l76 -37 -1 9 -2 8 -4 7 -5 6 -6 5 -7 4c-5,2 -11,3 -17,3l-12 0c-7,0 -14,-2 -21,-5z"/>
    <polygon class="fil0" points="2251,1429 2342,1383 2346,1384 2350,1385 2354,1387 2357,1389 2360,1393 2362,1396 2363,1400 2363,1405 2342,1415 2342,1405 2329,1405 2308,1426 2312,1430 2272,1450 "/>
    <polygon class="fil0" points="2261,1439 2329,1405 2317,1417 2265,1443 "/>
    <polygon class="fil0" points="2257,1417 2319,1386 2321,1385 2323,1384 2325,1384 2327,1383 2329,1383 2252,1422 "/>
    <path class="fil0" d="M2300 1478l63 -31 0 4 -1 4 -2 4 -3 3 -3 3 -4 2 -39 19c-4,-2 -8,-4 -11,-8z"/>
    <polygon class="fil0" points="2252,1422 2329,1383 2342,1383 2251,1429 2248,1426 "/>
    <polygon class="fil0" points="2272,1450 2312,1430 2329,1447 2342,1447 2342,1415 2363,1405 2363,1447 2300,1478 2299,1477 "/>
    <polygon class="fil0" points="2265,1443 2317,1417 2308,1426 2329,1447 2342,1447 2293,1471 "/>
   </g>
   <g>
    <path class="fil0" d="M1276 958l34 -18c5,4 8,10 8,17 0,12 -10,21 -21,21 -11,0 -21,-9 -21,-20z"/>
    <path class="fil0" d="M1311 940l-34 18 0 -1c0,-12 10,-21 21,-21 5,0 10,2 13,5z"/>
    <path class="fil0" d="M1297 935c12,0 21,10 21,21 0,12 -10,21 -21,21 -12,0 -21,-10 -21,-21 0,-12 10,-21 21,-21z"/>
    <path class="fil0" d="M1297 935c12,0 21,10 21,21 0,12 -10,21 -21,21 -12,0 -21,-10 -21,-21 0,-12 10,-21 21,-21z"/>
    <path class="fil0" d="M1280 969l37 -20c1,2 1,4 1,7 0,12 -10,21 -21,21 -7,0 -13,-3 -17,-8z"/>
    <path class="fil0" d="M1277 949l25 -13c7,2 13,7 15,14l-37 20c-3,-4 -4,-8 -4,-13 0,-3 0,-5 1,-7z"/>
    <path class="fil0" d="M1317 948l-38 20c-2,-3 -3,-7 -3,-11 0,-12 10,-21 21,-21 9,0 16,5 20,13z"/>
    <path class="fil0" d="M1297 935c12,0 21,10 21,21 0,12 -10,21 -21,21 -12,0 -21,-10 -21,-21 0,-12 10,-21 21,-21z"/>
    <path class="fil0" d="M1297 935c12,0 21,10 21,21 0,12 -10,21 -21,21 -12,0 -21,-10 -21,-21 0,-12 10,-21 21,-21z"/>
    <path class="fil0" d="M1297 935c12,0 21,10 21,21 0,12 -10,21 -21,21 -12,0 -21,-10 -21,-21 0,-12 10,-21 21,-21z"/>
    <path class="fil0" d="M1280 944l18 -9 4 0 4 1 4 2 3 3 3 3 2 4 1 4 0 4 -33 18c-6,-4 -9,-10 -9,-18 0,-5 1,-9 4,-12z"/>
    <path class="fil0" d="M1286 938l3 -2 4 -1 4 0 -18 9c2,-2 4,-4 6,-6z"/>
    <path class="fil0" d="M1285 974l33 -18 0 4 -1 4 -2 4 -3 3 -3 3 -4 2c-3,1 -5,2 -8,2 -5,0 -9,-1 -12,-4z"/>
   </g>
   <g>
    <polygon class="fil0" points="1805,1234 1830,1221 1830,1234 "/>
    <polygon class="fil0" points="1830,1207 1788,1229 1788,1191 1830,1191 "/>
    <polygon class="fil0" points="1804,1191 1788,1200 1788,1191 "/>
    <polygon class="fil0" points="1788,1219 1830,1197 1830,1234 1788,1234 "/>
    <polygon class="fil0" points="1788,1196 1797,1191 1830,1191 1830,1234 1788,1234 "/>
    <polygon class="fil0" points="1788,1217 1830,1195 1830,1234 1788,1234 "/>
    <polygon class="fil0" points="1788,1227 1830,1205 1830,1234 1788,1234 "/>
    <polygon class="fil0" points="1830,1195 1788,1217 1788,1191 1830,1191 "/>
    <polygon class="fil0" points="1830,1205 1788,1227 1788,1191 1830,1191 "/>
    <polygon class="fil0" points="1788,1202 1809,1191 1830,1191 1830,1203 1788,1225 "/>
    <polygon class="fil0" points="1788,1225 1830,1203 1830,1234 1788,1234 "/>
    <polygon class="fil0" points="1788,1214 1830,1192 1830,1213 1790,1234 1788,1234 "/>
    <polygon class="fil0" points="1809,1191 1788,1202 1788,1191 "/>
    <polygon class="fil0" points="1789,1234 1830,1213 1830,1234 "/>
    <polygon class="fil0" points="1791,1191 1788,1193 1788,1191 "/>
    <polygon class="fil0" points="1788,1193 1791,1191 1827,1191 1788,1211 "/>
    <polygon class="fil0" points="1830,1192 1788,1214 1788,1191 1830,1191 "/>
    <polygon class="fil0" points="1788,1191 1830,1191 1788,1213 "/>
    <polygon class="fil0" points="1788,1213 1830,1191 1830,1234 1788,1234 "/>
   </g>
   <g>
    <polygon class="fil0" points="2110,1234 2195,1191 2235,1191 2235,1234 "/>
    <polygon class="fil0" points="1873,1199 1889,1191 1965,1191 1880,1234 1873,1234 "/>
    <polygon class="fil0" points="1880,1234 1965,1191 2124,1191 2040,1234 "/>
    <polygon class="fil0" points="1944,1191 1873,1227 1873,1191 "/>
    <polygon class="fil0" points="2127,1234 2211,1191 2235,1191 2235,1222 2212,1234 "/>
    <polygon class="fil0" points="1873,1227 1944,1191 2195,1191 2110,1234 1873,1234 "/>
    <polygon class="fil0" points="1922,1191 1873,1216 1873,1191 "/>
    <polygon class="fil0" points="1873,1216 1922,1191 2211,1191 2127,1234 1873,1234 "/>
    <polygon class="fil0" points="2083,1234 2168,1191 2208,1191 2123,1234 "/>
    <polygon class="fil0" points="2123,1234 2208,1191 2235,1191 2235,1234 "/>
    <polygon class="fil0" points="2109,1191 2024,1234 1873,1234 1873,1191 "/>
    <polygon class="fil0" points="2225,1234 2235,1229 2235,1233 2234,1234 "/>
    <polygon class="fil0" points="1939,1191 1873,1224 1873,1191 "/>
    <polygon class="fil0" points="2149,1234 2234,1191 2235,1191 2235,1234 "/>
    <polygon class="fil0" points="2015,1234 2099,1191 2234,1191 2149,1234 "/>
    <polygon class="fil0" points="2151,1234 2235,1191 2235,1234 "/>
    <polygon class="fil0" points="1947,1234 2032,1191 2099,1191 2015,1234 "/>
    <polygon class="fil0" points="1873,1224 1939,1191 2032,1191 1947,1234 1873,1234 "/>
    <polygon class="fil0" points="1921,1191 1873,1215 1873,1191 "/>
    <polygon class="fil0" points="1874,1191 1873,1192 1873,1191 "/>
    <polygon class="fil0" points="1873,1191 2235,1191 2151,1234 1873,1234 "/>
   </g>
   <g>
    <polygon class="fil0" points="2127,1319 2212,1276 2235,1276 2235,1319 "/>
    <polygon class="fil0" points="1941,1319 2025,1276 2193,1276 2108,1319 "/>
    <polygon class="fil0" points="1796,1276 1788,1281 1788,1276 "/>
    <polygon class="fil0" points="1788,1281 1796,1276 1955,1276 1870,1319 1788,1319 "/>
    <polygon class="fil0" points="2176,1319 2235,1289 2235,1319 "/>
    <polygon class="fil0" points="1957,1319 2042,1276 2127,1276 2042,1319 "/>
    <polygon class="fil0" points="2025,1276 1941,1319 1788,1319 1788,1276 "/>
    <polygon class="fil0" points="2042,1276 1957,1319 1788,1319 1788,1276 "/>
    <polygon class="fil0" points="1914,1319 1998,1276 2039,1276 1954,1319 "/>
    <polygon class="fil0" points="1954,1319 2039,1276 2212,1276 2127,1319 "/>
    <polygon class="fil0" points="1940,1276 1855,1319 1788,1319 1788,1276 "/>
    <polygon class="fil0" points="2104,1319 2190,1276 2235,1276 2235,1289 2176,1319 "/>
    <polygon class="fil0" points="2153,1319 2235,1278 2235,1283 2163,1319 "/>
    <polygon class="fil0" points="2056,1319 2141,1276 2149,1276 2064,1319 "/>
    <polygon class="fil0" points="2150,1319 2235,1276 2235,1319 "/>
    <polygon class="fil0" points="1979,1319 2064,1276 2199,1276 2113,1319 "/>
    <polygon class="fil0" points="1846,1319 1930,1276 2064,1276 1979,1319 "/>
    <polygon class="fil0" points="1981,1319 2066,1276 2150,1276 2065,1319 "/>
    <polygon class="fil0" points="1788,1315 1863,1276 1930,1276 1846,1319 1788,1319 "/>
    <polygon class="fil0" points="1863,1276 1788,1315 1788,1276 "/>
    <polygon class="fil0" points="2066,1276 1981,1319 1788,1319 1788,1276 "/>
    <polygon class="fil0" points="1788,1276 2235,1276 2150,1319 1788,1319 "/>
   </g>
   <g>
    <polygon class="fil0" points="1807,679 1830,667 1830,679 "/>
    <polygon class="fil0" points="1830,667 1807,679 1788,679 1788,636 1830,636 "/>
    <polygon class="fil0" points="1800,636 1788,643 1788,636 "/>
    <polygon class="fil0" points="1788,679 1830,679 1830,636 1788,636 "/>
    <polygon class="fil0" points="1788,679 1830,679 1830,636 1788,636 "/>
    <polygon class="fil0" points="1792,679 1830,658 1830,679 "/>
    <polygon class="fil0" points="1788,659 1830,636 1830,679 1788,679 "/>
    <polygon class="fil0" points="1788,636 1830,636 1788,659 "/>
   </g>
   <g>
    <polygon class="fil0" points="1969,636 1958,642 1958,636 "/>
    <polygon class="fil0" points="1958,679 2001,679 2001,636 1958,636 "/>
    <polygon class="fil0" points="1958,679 2001,679 2001,636 1958,636 "/>
    <polygon class="fil0" points="1958,636 2001,636 1958,658 "/>
    <polygon class="fil0" points="1958,658 2001,636 2001,679 1958,679 "/>
   </g>
   <g>
    <polygon class="fil0" points="1873,644 1889,636 1916,636 1916,664 1888,679 1873,679 "/>
    <polygon class="fil0" points="1889,636 1873,644 1873,636 "/>
    <polygon class="fil0" points="1873,679 1916,679 1916,636 1873,636 "/>
    <polygon class="fil0" points="1873,679 1916,679 1916,636 1873,636 "/>
    <polygon class="fil0" points="1877,679 1916,658 1916,679 "/>
    <polygon class="fil0" points="1873,658 1916,636 1916,679 1873,679 "/>
    <polygon class="fil0" points="1873,636 1916,636 1873,658 "/>
   </g>
  </g>
  <path class="fil2" d="M217 1826c7,11 12,21 16,32 3,7 5,19 21,19 5,0 11,-1 17,-5 7,-3 12,-9 14,-17l6 -21 15 -7 1 1c-2,8 -3,16 -3,21 0,18 15,24 27,24 7,0 13,-3 13,-10 0,-8 -4,-22 -8,-35 7,-7 14,-14 22,-20l1 1c4,15 6,30 6,40 0,10 -4,20 -8,27 -7,14 -20,25 -36,25 -12,0 -25,-6 -34,-17l-1 0c-9,11 -22,20 -43,20l-7 0c-1,14 -4,24 -9,33 -13,25 -50,42 -85,42 -49,0 -73,-28 -73,-66 0,-23 8,-45 19,-60l10 4c-7,14 -12,27 -12,40 0,35 29,52 62,52 31,0 68,-19 75,-42 -3,-25 -12,-36 -26,-59 4,-7 10,-15 17,-23l1 0 0 0 0 0 2 1zm564 -133c10,6 20,14 30,23 -6,8 -12,15 -21,21 -10,-8 -20,-15 -30,-22 7,-8 14,-15 20,-22l0 0 0 0 1 0zm5 96c-17,0 -30,11 -30,19 0,17 33,23 73,23 -5,-20 -22,-42 -43,-42zm-37 93c22,0 41,-1 55,-4 16,-4 30,-12 30,-18 0,-1 0,-3 -1,-5 -9,1 -19,1 -29,1 -29,0 -52,-7 -61,-23 -2,-5 -4,-10 -4,-16 0,-16 7,-32 19,-42 10,-9 21,-14 33,-14 20,0 37,16 48,42 6,14 11,30 11,51 0,14 -4,25 -12,34 -16,15 -45,21 -90,21l-20 0 0 0 -5 0c-11,0 -19,-2 -25,-7l-1 0c0,3 1,5 1,7 0,10 -3,23 -10,33 -20,30 -42,43 -60,43 -19,0 -42,-7 -63,-17l4 -7c7,3 16,5 29,5 34,0 78,-33 84,-64 -1,-3 -4,-6 -7,-10 -10,-12 -16,-22 -22,-32 5,-10 10,-18 14,-25l2 0c14,29 28,46 57,46l5 0 0 0 21 0 0 0 0 0 -3 1zm-146 31c2,-14 3,-29 3,-43l0 -21c0,-39 -5,-96 -9,-133 7,-8 17,-17 25,-23l2 1c5,47 7,101 7,151 0,13 -1,26 -2,35 -1,12 -8,21 -22,35l-3 -1 -1 -1zm-151 -62c1,18 10,33 41,33 20,0 36,-5 55,-14 3,-1 5,-3 5,-5 0,-12 -9,-27 -24,-41 -14,-13 -34,-25 -51,-32 -6,-3 -8,-5 -8,-8 0,-5 7,-16 13,-24l2 0c20,11 43,27 60,44 15,16 25,33 25,51 0,13 -4,26 -11,38 -22,11 -46,20 -70,20 -29,0 -48,-14 -48,-45 0,-3 0,-9 1,-16l10 0 0 0 0 0 0 -1zm-52 -52l18 29c7,11 13,22 13,41l0 24c0,19 -12,39 -32,60 -15,14 -29,20 -42,20 -19,0 -40,-6 -65,-17l3 -7c8,2 17,4 28,4 36,0 72,-26 89,-58 2,-4 3,-7 3,-9 0,-4 -2,-8 -4,-11 -9,-17 -19,-33 -30,-47 6,-9 12,-18 18,-27l1 0 0 0 0 0 0 -2z"/>
  <g id="_2884089943360">
   <path class="fil3" d="M2491 487l0 85 -767 0 0 -85c0,-47 38,-85 85,-85l597 0c47,0 85,38 85,85z"/>
   <path class="fil3" d="M2491 1469l0 128c0,47 -38,85 -85,85l-597 0c-47,0 -85,-38 -85,-85l0 -128c0,47 38,85 85,85l597 0c47,0 85,-38 85,-85z"/>
   <path class="fil4" d="M1724 572l0 897c0,47 38,85 85,85l597 0c47,0 85,-38 85,-85l0 -897 -767 0z"/>
   <path class="fil5" d="M1937 1426l-36 37c-4,4 -9,6 -15,6l-13 0c-12,0 -21,-10 -21,-21l0 -43c0,-12 10,-21 21,-21l13 0c6,0 11,2 15,6l36 37z"/>
   <path class="fil5" d="M2150 1405l0 43c0,12 -10,21 -21,21l-43 0c-12,0 -21,-10 -21,-21l0 -43c0,-12 10,-21 21,-21l43 0c12,0 21,10 21,21z"/>
   <path class="fil5" d="M2363 1447c0,12 -10,21 -21,21l-13 0c-6,0 -11,-2 -15,-6l-36 -37 36 -37c4,-4 9,-6 15,-6l13 0c12,0 21,10 21,21l0 43z"/>
   <path class="fil6" d="M1297 1042c-23,0 -45,-10 -60,-25 -15,-16 -25,-37 -25,-60 0,-47 38,-85 85,-85l470 0c24,0 47,-10 63,-28 31,-35 77,-57 127,-57 63,0 120,34 149,85l-85 0c-27,0 -52,13 -68,34 -12,15 -17,33 -17,51 0,18 6,36 17,51 16,22 41,34 68,34l85 0c-29,51 -86,85 -149,85 -51,0 -96,-22 -127,-57 -16,-18 -39,-28 -63,-28l-470 0z"/>
   <path class="fil7" d="M2491 1127l0 128 -64 0 -14 -55c-14,-4 -27,-10 -39,-16l-49 29 -45 -45 -45 -45 29 -49c-6,-13 -12,-26 -16,-39l-55 -14 0 -128 55 -14c4,-14 10,-27 16,-39l-29 -49 90 -91 49 29c13,-6 26,-12 39,-16l14 -55 64 0 0 128c-94,0 -171,76 -171,171 0,39 14,76 36,105l30 30c29,22 65,36 105,36l0 0z"/>
   <path class="fil5" d="M2491 1042l0 85c-39,0 -76,-14 -105,-36l-30 -30c-22,-29 -36,-65 -36,-105 0,-94 76,-171 171,-171l0 85c-47,0 -85,38 -85,85 0,47 38,85 85,85z"/>
   <path class="fil8" d="M2406 1533l-597 0c-35,0 -64,-29 -64,-64l0 -406 23 0c18,0 35,8 47,21 36,41 89,65 143,65 69,0 133,-37 168,-96l19 -32 -122 0c-20,0 -39,-10 -51,-26 -17,-23 -17,-54 0,-77 12,-16 31,-26 51,-26l122 0 -19 -32c-34,-59 -99,-96 -168,-96 -55,0 -107,24 -143,65 -12,13 -29,21 -47,21l-23 0 0 -256 725 0 0 43 -59 0 -15 60c-7,3 -14,5 -20,9l-53 -32 -114 114 32 53c-3,7 -6,14 -9,20l-60 15 0 161 60 15c3,7 5,14 9,20l-32 53 114 114 53 -32c7,3 14,6 20,9l15 60 59 0 0 192c0,35 -29,64 -64,64l0 0zm0 128l-597 0c-35,0 -64,-29 -64,-64l0 -43c18,14 40,22 64,22l597 0c24,0 46,-8 64,-22l0 43c0,35 -29,64 -64,64zm-1172 -704c0,-35 29,-64 64,-64l471 0c30,0 59,-13 79,-35 28,-32 69,-50 111,-50 40,0 78,16 106,43l-42 0c-33,0 -65,16 -85,43 -28,38 -28,90 0,128 20,27 52,43 85,43l42 0c-28,27 -66,43 -106,43 -42,0 -83,-18 -111,-50 -20,-22 -49,-35 -79,-35l-471 0c-35,0 -64,-29 -64,-64l0 0zm576 -534l597 0c35,0 64,29 64,64l0 64 -725 0 0 -64c0,-35 29,-64 64,-64zm661 343c-96,11 -171,92 -171,191 0,43 14,84 41,118l34 -26c-21,-27 -32,-58 -32,-92 0,-75 56,-137 128,-148l0 43c-49,10 -85,53 -85,105 0,52 37,95 85,105l0 43c-25,-4 -49,-14 -70,-30l-26 34c28,22 61,35 96,39l0 87 -26 0 -13 -50 -11 -4c-12,-4 -24,-9 -36,-15l-11 -5 -45 27 -67 -67 27 -45 -5 -11c-6,-12 -11,-24 -15,-36l-4 -11 -50 -13 0 -95 50 -13 4 -11c4,-12 9,-24 15,-36l5 -11 -27 -45 67 -67 45 27 10 -5c12,-6 24,-11 36,-15l11 -4 13 -50 26 0 0 87zm0 251c-25,-9 -43,-32 -43,-60 0,-28 18,-51 43,-60l0 120zm-64 -636l-597 0c-59,0 -107,48 -107,107l0 363 -405 0c-59,0 -107,48 -107,107 0,59 48,107 107,107l405 0 0 534c0,59 48,107 107,107l597 0c59,0 107,-48 107,-107l0 -1110c0,-59 -48,-107 -107,-107z"/>
   <polygon class="fil8" points="2086,508 2214,508 2214,465 2086,465 "/>
   <polygon class="fil8" points="2001,508 2044,508 2044,465 2001,465 "/>
   <path class="fil8" d="M1885 1447l-12 0 0 -43 12 0 21 21 -21 21zm0 -85l-12 0c-24,0 -43,19 -43,43l0 43c0,24 19,43 43,43l12 0c11,0 22,-5 30,-13l51 -52 -51 -52c-8,-8 -19,-13 -30,-13z"/>
   <path class="fil8" d="M2086 1447l0 -43 43 0 0 43 -43 0zm43 -85l-43 0c-24,0 -43,19 -43,43l0 43c0,24 19,43 43,43l43 0c24,0 43,-19 43,-43l0 -43c0,-24 -19,-43 -43,-43z"/>
   <path class="fil8" d="M2329 1447l-21 -21 21 -21 12 0 0 43 -13 0zm12 -85l-12 0c-11,0 -22,5 -30,13l-51 52 51 52c8,8 19,13 30,13l12 0c24,0 43,-19 43,-43l0 -43c0,-24 -19,-43 -43,-43z"/>
   <path class="fil8" d="M1297 935c12,0 21,10 21,21 0,12 -10,21 -21,21 -12,0 -21,-10 -21,-21 0,-12 10,-21 21,-21z"/>
   <polygon class="fil8" points="1788,1234 1830,1234 1830,1191 1788,1191 "/>
   <polygon class="fil8" points="1873,1234 2235,1234 2235,1191 1873,1191 "/>
   <polygon class="fil8" points="1788,1319 2235,1319 2235,1276 1788,1276 "/>
   <polygon class="fil8" points="1788,679 1830,679 1830,636 1788,636 "/>
   <polygon class="fil8" points="1958,679 2001,679 2001,636 1958,636 "/>
   <polygon class="fil8" points="1873,679 1916,679 1916,636 1873,636 "/>
  </g>
 </g>
</svg>
